<svg width="111" height="19" viewBox="0 0 111 19" fill="none" xmlns="http://www.w3.org/2000/svg">
<path d="M0.980469 18V0.9375H6.55859C8.41016 0.9375 9.80078 1.32031 10.7305 2.08594C11.668 2.85156 12.1367 3.98438 12.1367 5.48438C12.1367 6.28125 11.9102 6.98828 11.457 7.60547C11.0039 8.21484 10.3867 8.6875 9.60547 9.02344C10.5273 9.28125 11.2539 9.77344 11.7852 10.5C12.3242 11.2188 12.5938 12.0781 12.5938 13.0781C12.5938 14.6094 12.0977 15.8125 11.1055 16.6875C10.1133 17.5625 8.71094 18 6.89844 18H0.980469ZM3.23047 10.0195V16.1602H6.94531C7.99219 16.1602 8.81641 15.8906 9.41797 15.3516C10.0273 14.8047 10.332 14.0547 10.332 13.1016C10.332 11.0469 9.21484 10.0195 6.98047 10.0195H3.23047ZM3.23047 8.21484H6.62891C7.61328 8.21484 8.39844 7.96875 8.98438 7.47656C9.57812 6.98438 9.875 6.31641 9.875 5.47266C9.875 4.53516 9.60156 3.85547 9.05469 3.43359C8.50781 3.00391 7.67578 2.78906 6.55859 2.78906H3.23047V8.21484ZM25.5781 10.1133H18.1836V16.1602H26.7734V18H15.9336V0.9375H26.6562V2.78906H18.1836V8.27344H25.5781V10.1133ZM35.832 11.0977H31.8242V18H29.5625V0.9375H35.2109C37.1328 0.9375 38.6094 1.375 39.6406 2.25C40.6797 3.125 41.1992 4.39844 41.1992 6.07031C41.1992 7.13281 40.9102 8.05859 40.332 8.84766C39.7617 9.63672 38.9648 10.2266 37.9414 10.6172L41.9492 17.8594V18H39.5352L35.832 11.0977ZM31.8242 9.25781H35.2812C36.3984 9.25781 37.2852 8.96875 37.9414 8.39062C38.6055 7.8125 38.9375 7.03906 38.9375 6.07031C38.9375 5.01562 38.6211 4.20703 37.9883 3.64453C37.3633 3.08203 36.457 2.79688 35.2695 2.78906H31.8242V9.25781ZM46.625 16.1602H54.7109V18H44.3633V0.9375H46.625V16.1602ZM59.6914 18H57.4414V0.9375H59.6914V18ZM76.9297 18H74.668L66.0781 4.85156V18H63.8164V0.9375H66.0781L74.6914 14.1445V0.9375H76.9297V18ZM93.5234 15.7617C92.9453 16.5898 92.1367 17.2109 91.0977 17.625C90.0664 18.0312 88.8633 18.2344 87.4883 18.2344C86.0977 18.2344 84.8633 17.9102 83.7852 17.2617C82.707 16.6055 81.8711 15.6758 81.2773 14.4727C80.6914 13.2695 80.3906 11.875 80.375 10.2891V8.80078C80.375 6.23047 80.9727 4.23828 82.168 2.82422C83.3711 1.41016 85.0586 0.703125 87.2305 0.703125C89.0117 0.703125 90.4453 1.16016 91.5312 2.07422C92.6172 2.98047 93.2812 4.26953 93.5234 5.94141H91.2734C90.8516 3.68359 89.5078 2.55469 87.2422 2.55469C85.7344 2.55469 84.5898 3.08594 83.8086 4.14844C83.0352 5.20312 82.6445 6.73438 82.6367 8.74219V10.1367C82.6367 12.0508 83.0742 13.5742 83.9492 14.707C84.8242 15.832 86.0078 16.3945 87.5 16.3945C88.3438 16.3945 89.082 16.3008 89.7148 16.1133C90.3477 15.9258 90.8711 15.6094 91.2852 15.1641V11.332H87.3359V9.50391H93.5234V15.7617ZM110.41 10.0195C110.41 11.6914 110.129 13.1523 109.566 14.4023C109.004 15.6445 108.207 16.5938 107.176 17.25C106.145 17.9062 104.941 18.2344 103.566 18.2344C102.223 18.2344 101.031 17.9062 99.9922 17.25C98.9531 16.5859 98.1445 15.6445 97.5664 14.4258C96.9961 13.1992 96.7031 11.7812 96.6875 10.1719V8.94141C96.6875 7.30078 96.9727 5.85156 97.543 4.59375C98.1133 3.33594 98.918 2.375 99.957 1.71094C101.004 1.03906 102.199 0.703125 103.543 0.703125C104.91 0.703125 106.113 1.03516 107.152 1.69922C108.199 2.35547 109.004 3.3125 109.566 4.57031C110.129 5.82031 110.41 7.27734 110.41 8.94141V10.0195ZM108.172 8.91797C108.172 6.89453 107.766 5.34375 106.953 4.26562C106.141 3.17969 105.004 2.63672 103.543 2.63672C102.121 2.63672 101 3.17969 100.18 4.26562C99.3672 5.34375 98.9492 6.84375 98.9258 8.76562V10.0195C98.9258 11.9805 99.3359 13.5234 100.156 14.6484C100.984 15.7656 102.121 16.3242 103.566 16.3242C105.02 16.3242 106.145 15.7969 106.941 14.7422C107.738 13.6797 108.148 12.1602 108.172 10.1836V8.91797Z" fill="black"/>
</svg>
