<svg width="79" height="17" viewBox="0 0 79 17" fill="none" xmlns="http://www.w3.org/2000/svg">
<path d="M0.358154 16.5V0.859375H4.77319C6.13387 0.859375 7.337 1.16016 8.38257 1.76172C9.42814 2.36328 10.2338 3.21908 10.7996 4.3291C11.3725 5.43913 11.6625 6.71387 11.6697 8.15332V9.15234C11.6697 10.6276 11.3832 11.9202 10.8103 13.0303C10.2445 14.1403 9.43172 14.9925 8.37183 15.5869C7.31909 16.1813 6.0909 16.4857 4.68726 16.5H0.358154ZM2.42065 2.55664V14.8135H4.59058C6.18042 14.8135 7.41577 14.3193 8.29663 13.3311C9.18465 12.3428 9.62866 10.9355 9.62866 9.10938V8.19629C9.62866 6.42025 9.20972 5.04167 8.37183 4.06055C7.5411 3.07227 6.35946 2.57096 4.8269 2.55664H2.42065ZM23.6365 9.27051H16.8582V14.8135H24.7322V16.5H14.7957V0.859375H24.6248V2.55664H16.8582V7.58398H23.6365V9.27051ZM39.3201 16.5H37.2468L29.3728 4.44727V16.5H27.2996V0.859375H29.3728L37.2683 12.9658V0.859375H39.3201V16.5ZM47.5916 9.52832C45.8227 9.01986 44.5336 8.39681 43.7244 7.65918C42.9223 6.91439 42.5212 5.99772 42.5212 4.90918C42.5212 3.67741 43.0118 2.66048 43.9929 1.8584C44.9812 1.04915 46.2631 0.644531 47.8386 0.644531C48.9128 0.644531 49.8689 0.852214 50.7068 1.26758C51.5518 1.68294 52.2035 2.25586 52.6619 2.98633C53.1274 3.7168 53.3601 4.5153 53.3601 5.38184H51.2869C51.2869 4.43652 50.9861 3.69531 50.3845 3.1582C49.783 2.61393 48.9343 2.3418 47.8386 2.3418C46.8217 2.3418 46.0268 2.56738 45.4539 3.01855C44.8881 3.46257 44.6052 4.08203 44.6052 4.87695C44.6052 5.51432 44.8738 6.05501 45.4109 6.49902C45.9552 6.93587 46.8754 7.33691 48.1716 7.70215C49.475 8.06738 50.4919 8.47201 51.2224 8.91602C51.96 9.35286 52.5043 9.86491 52.8552 10.4521C53.2133 11.0394 53.3923 11.7305 53.3923 12.5254C53.3923 13.793 52.8982 14.8099 51.9099 15.5762C50.9216 16.3353 49.6003 16.7148 47.946 16.7148C46.8718 16.7148 45.8692 16.5107 44.9382 16.1025C44.0072 15.6872 43.2875 15.1214 42.7791 14.4053C42.2778 13.6891 42.0271 12.8763 42.0271 11.9668H44.1003C44.1003 12.9121 44.4477 13.6605 45.1423 14.2119C45.8442 14.7562 46.7787 15.0283 47.946 15.0283C49.0346 15.0283 49.8689 14.8063 50.449 14.3623C51.0291 13.9183 51.3191 13.3132 51.3191 12.5469C51.3191 11.7806 51.0505 11.1898 50.5134 10.7744C49.9763 10.3519 49.0024 9.93652 47.5916 9.52832ZM64.8865 9.27051H58.1082V14.8135H65.9822V16.5H56.0457V0.859375H65.8748V2.55664H58.1082V7.58398H64.8865V9.27051ZM70.6228 14.8135H78.0349V16.5H68.5496V0.859375H70.6228V14.8135Z" fill="black"/>
</svg>
