<svg width="72" height="19" viewBox="0 0 72 19" fill="none" xmlns="http://www.w3.org/2000/svg">
<path d="M14.074 12.5859C13.863 14.3906 13.1951 15.7852 12.0701 16.7695C10.9529 17.7461 9.4646 18.2344 7.60522 18.2344C5.5896 18.2344 3.97241 17.5117 2.75366 16.0664C1.54272 14.6211 0.937256 12.6875 0.937256 10.2656V8.625C0.937256 7.03906 1.21851 5.64453 1.78101 4.44141C2.35132 3.23828 3.15601 2.31641 4.19507 1.67578C5.23413 1.02734 6.43726 0.703125 7.80444 0.703125C9.61694 0.703125 11.0701 1.21094 12.1638 2.22656C13.2576 3.23438 13.8943 4.63281 14.074 6.42188H11.8123C11.6169 5.0625 11.1912 4.07812 10.5349 3.46875C9.88647 2.85938 8.97632 2.55469 7.80444 2.55469C6.36694 2.55469 5.23804 3.08594 4.41772 4.14844C3.60522 5.21094 3.19897 6.72266 3.19897 8.68359V10.3359C3.19897 12.1875 3.58569 13.6602 4.35913 14.7539C5.13257 15.8477 6.2146 16.3945 7.60522 16.3945C8.85522 16.3945 9.81226 16.1133 10.4763 15.5508C11.1482 14.9805 11.5935 13.9922 11.8123 12.5859H14.074ZM29.1677 0.9375V12.5391C29.1599 14.1484 28.6521 15.4648 27.6443 16.4883C26.6443 17.5117 25.2849 18.0859 23.5662 18.2109L22.9685 18.2344C21.1013 18.2344 19.613 17.7305 18.5037 16.7227C17.3943 15.7148 16.8318 14.3281 16.8162 12.5625V0.9375H19.0427V12.4922C19.0427 13.7266 19.3826 14.6875 20.0623 15.375C20.7419 16.0547 21.7107 16.3945 22.9685 16.3945C24.2419 16.3945 25.2146 16.0547 25.8865 15.375C26.5662 14.6953 26.906 13.7383 26.906 12.5039V0.9375H29.1677ZM42.363 10.1133H34.9685V16.1602H43.5583V18H32.7185V0.9375H43.4412V2.78906H34.9685V8.27344H42.363V10.1133ZM51.3865 10.3945C49.4568 9.83984 48.0505 9.16016 47.1677 8.35547C46.2927 7.54297 45.8552 6.54297 45.8552 5.35547C45.8552 4.01172 46.3904 2.90234 47.4607 2.02734C48.5388 1.14453 49.9373 0.703125 51.656 0.703125C52.8279 0.703125 53.8708 0.929687 54.7849 1.38281C55.7068 1.83594 56.4177 2.46094 56.9177 3.25781C57.4255 4.05469 57.6794 4.92578 57.6794 5.87109H55.4177C55.4177 4.83984 55.0896 4.03125 54.4333 3.44531C53.7771 2.85156 52.8513 2.55469 51.656 2.55469C50.5466 2.55469 49.6794 2.80078 49.0544 3.29297C48.4373 3.77734 48.1287 4.45312 48.1287 5.32031C48.1287 6.01562 48.4216 6.60547 49.0076 7.08984C49.6013 7.56641 50.6052 8.00391 52.0193 8.40234C53.4412 8.80078 54.5505 9.24219 55.3474 9.72656C56.1521 10.2031 56.7458 10.7617 57.1287 11.4023C57.5193 12.043 57.7146 12.7969 57.7146 13.6641C57.7146 15.0469 57.1755 16.1562 56.0974 16.9922C55.0193 17.8203 53.5779 18.2344 51.7732 18.2344C50.6013 18.2344 49.5076 18.0117 48.4919 17.5664C47.4763 17.1133 46.6912 16.4961 46.1365 15.7148C45.5896 14.9336 45.3162 14.0469 45.3162 13.0547H47.5779C47.5779 14.0859 47.9568 14.9023 48.7146 15.5039C49.4802 16.0977 50.4998 16.3945 51.7732 16.3945C52.9607 16.3945 53.8708 16.1523 54.5037 15.668C55.1365 15.1836 55.4529 14.5234 55.4529 13.6875C55.4529 12.8516 55.1599 12.207 54.574 11.7539C53.988 11.293 52.9255 10.8398 51.3865 10.3945ZM65.6365 10.3945C63.7068 9.83984 62.3005 9.16016 61.4177 8.35547C60.5427 7.54297 60.1052 6.54297 60.1052 5.35547C60.1052 4.01172 60.6404 2.90234 61.7107 2.02734C62.7888 1.14453 64.1873 0.703125 65.906 0.703125C67.0779 0.703125 68.1208 0.929687 69.0349 1.38281C69.9568 1.83594 70.6677 2.46094 71.1677 3.25781C71.6755 4.05469 71.9294 4.92578 71.9294 5.87109H69.6677C69.6677 4.83984 69.3396 4.03125 68.6833 3.44531C68.0271 2.85156 67.1013 2.55469 65.906 2.55469C64.7966 2.55469 63.9294 2.80078 63.3044 3.29297C62.6873 3.77734 62.3787 4.45312 62.3787 5.32031C62.3787 6.01562 62.6716 6.60547 63.2576 7.08984C63.8513 7.56641 64.8552 8.00391 66.2693 8.40234C67.6912 8.80078 68.8005 9.24219 69.5974 9.72656C70.4021 10.2031 70.9958 10.7617 71.3787 11.4023C71.7693 12.043 71.9646 12.7969 71.9646 13.6641C71.9646 15.0469 71.4255 16.1562 70.3474 16.9922C69.2693 17.8203 67.8279 18.2344 66.0232 18.2344C64.8513 18.2344 63.7576 18.0117 62.7419 17.5664C61.7263 17.1133 60.9412 16.4961 60.3865 15.7148C59.8396 14.9336 59.5662 14.0469 59.5662 13.0547H61.8279C61.8279 14.0859 62.2068 14.9023 62.9646 15.5039C63.7302 16.0977 64.7498 16.3945 66.0232 16.3945C67.2107 16.3945 68.1208 16.1523 68.7537 15.668C69.3865 15.1836 69.7029 14.5234 69.7029 13.6875C69.7029 12.8516 69.4099 12.207 68.824 11.7539C68.238 11.293 67.1755 10.8398 65.6365 10.3945Z" fill="black"/>
</svg>
