<svg width="86" height="19" viewBox="0 0 86 19" fill="none" xmlns="http://www.w3.org/2000/svg">
<path d="M14.0938 18H11.832V10.1133H3.23047V18H0.980469V0.9375H3.23047V8.27344H11.832V0.9375H14.0938V18ZM30.1016 0.9375V12.5391C30.0938 14.1484 29.5859 15.4648 28.5781 16.4883C27.5781 17.5117 26.2188 18.0859 24.5 18.2109L23.9023 18.2344C22.0352 18.2344 20.5469 17.7305 19.4375 16.7227C18.3281 15.7148 17.7656 14.3281 17.75 12.5625V0.9375H19.9766V12.4922C19.9766 13.7266 20.3164 14.6875 20.9961 15.375C21.6758 16.0547 22.6445 16.3945 23.9023 16.3945C25.1758 16.3945 26.1484 16.0547 26.8203 15.375C27.5 14.6953 27.8398 13.7383 27.8398 12.5039V0.9375H30.1016ZM42.8164 13.5469H35.668L34.0625 18H31.7422L38.2578 0.9375H40.2266L46.7539 18H44.4453L42.8164 13.5469ZM36.3477 11.6953H42.1484L39.2422 3.71484L36.3477 11.6953ZM51.9102 12.6211L52.2383 14.8711L52.7188 12.8438L56.0938 0.9375H57.9922L61.2852 12.8438L61.7539 14.9062L62.1172 12.6094L64.7656 0.9375H67.0273L62.8906 18H60.8398L57.3242 5.56641L57.0547 4.26562L56.7852 5.56641L53.1406 18H51.0898L46.9648 0.9375H49.2148L51.9102 12.6211ZM79.1797 10.1133H71.7852V16.1602H80.375V18H69.5352V0.9375H80.2578V2.78906H71.7852V8.27344H79.1797V10.1133ZM85.5898 18H83.3398V0.9375H85.5898V18Z" fill="black"/>
</svg>
