<svg width="77" height="19" viewBox="0 0 77 19" fill="none" xmlns="http://www.w3.org/2000/svg">
<path d="M12.5349 0.9375V12.5391C12.5271 14.1484 12.0193 15.4648 11.0115 16.4883C10.0115 17.5117 8.6521 18.0859 6.93335 18.2109L6.33569 18.2344C4.46851 18.2344 2.98022 17.7305 1.87085 16.7227C0.761475 15.7148 0.198975 14.3281 0.18335 12.5625V0.9375H2.40991V12.4922C2.40991 13.7266 2.74976 14.6875 3.42944 15.375C4.10913 16.0547 5.07788 16.3945 6.33569 16.3945C7.60913 16.3945 8.58179 16.0547 9.25366 15.375C9.93335 14.6953 10.2732 13.7383 10.2732 12.5039V0.9375H12.5349ZM20.2576 11.6367H14.5388V9.86719H20.2576V11.6367ZM27.0544 10.0664L24.9685 12.2344V18H22.7185V0.9375H24.9685V9.375L32.5505 0.9375H35.2693L28.5544 8.47266L35.7966 18H33.1013L27.0544 10.0664ZM41.4451 12.6211L41.7732 14.8711L42.2537 12.8438L45.6287 0.9375H47.5271L50.8201 12.8438L51.2888 14.9062L51.6521 12.6094L54.3005 0.9375H56.5623L52.4255 18H50.3748L46.8591 5.56641L46.5896 4.26562L46.3201 5.56641L42.6755 18H40.6248L36.4998 0.9375H38.7498L41.4451 12.6211ZM67.9763 13.5469H60.8279L59.2224 18H56.9021L63.4177 0.9375H65.3865L71.9138 18H69.6052L67.9763 13.5469ZM61.5076 11.6953H67.3083L64.4021 3.71484L61.5076 11.6953ZM76.6248 18H74.3748V0.9375H76.6248V18Z" fill="black"/>
</svg>
