<svg width="92" height="18" viewBox="0 0 92 18" fill="none" xmlns="http://www.w3.org/2000/svg">
<path d="M3.88672 0.4375L9.46484 14.3594L15.043 0.4375H17.9609V17.5H15.7109V10.8555L15.9219 3.68359L10.3203 17.5H8.59766L3.00781 3.71875L3.23047 10.8555V17.5H0.980469V0.4375H3.88672ZM31.5664 13.0469H24.418L22.8125 17.5H20.4922L27.0078 0.4375H28.9766L35.5039 17.5H33.1953L31.5664 13.0469ZM25.0977 11.1953H30.8984L27.9922 3.21484L25.0977 11.1953ZM44.0586 10.5977H40.0508V17.5H37.7891V0.4375H43.4375C45.3594 0.4375 46.8359 0.875 47.8672 1.75C48.9062 2.625 49.4258 3.89844 49.4258 5.57031C49.4258 6.63281 49.1367 7.55859 48.5586 8.34766C47.9883 9.13672 47.1914 9.72656 46.168 10.1172L50.1758 17.3594V17.5H47.7617L44.0586 10.5977ZM40.0508 8.75781H43.5078C44.625 8.75781 45.5117 8.46875 46.168 7.89062C46.832 7.3125 47.1641 6.53906 47.1641 5.57031C47.1641 4.51562 46.8477 3.70703 46.2148 3.14453C45.5898 2.58203 44.6836 2.29688 43.4961 2.28906H40.0508V8.75781ZM54.8398 10.8203V17.5H52.5898V0.4375H58.8828C60.75 0.4375 62.2109 0.914063 63.2656 1.86719C64.3281 2.82031 64.8594 4.08203 64.8594 5.65234C64.8594 7.30859 64.3398 8.58594 63.3008 9.48438C62.2695 10.375 60.7891 10.8203 58.8594 10.8203H54.8398ZM54.8398 8.98047H58.8828C60.0859 8.98047 61.0078 8.69922 61.6484 8.13672C62.2891 7.56641 62.6094 6.74609 62.6094 5.67578C62.6094 4.66016 62.2891 3.84766 61.6484 3.23828C61.0078 2.62891 60.1289 2.3125 59.0117 2.28906H54.8398V8.98047ZM69.9922 15.6602H78.0781V17.5H67.7305V0.4375H69.9922V15.6602ZM90.2891 9.61328H82.8945V15.6602H91.4844V17.5H80.6445V0.4375H91.3672V2.28906H82.8945V7.77344H90.2891V9.61328Z" fill="black"/>
</svg>
