<svg width="76" height="18" viewBox="0 0 76 18" fill="none" xmlns="http://www.w3.org/2000/svg">
<path d="M2.78491 15.6602H10.8708V17.5H0.523193V0.4375H2.78491V15.6602ZM23.0935 13.0469H15.9451L14.3396 17.5H12.0193L18.5349 0.4375H20.5037L27.031 17.5H24.7224L23.0935 13.0469ZM16.6248 11.1953H22.4255L19.5193 3.21484L16.6248 11.1953ZM34.3552 9.89453C32.4255 9.33984 31.0193 8.66016 30.1365 7.85547C29.2615 7.04297 28.824 6.04297 28.824 4.85547C28.824 3.51172 29.3591 2.40234 30.4294 1.52734C31.5076 0.644531 32.906 0.203125 34.6248 0.203125C35.7966 0.203125 36.8396 0.429687 37.7537 0.882812C38.6755 1.33594 39.3865 1.96094 39.8865 2.75781C40.3943 3.55469 40.6482 4.42578 40.6482 5.37109H38.3865C38.3865 4.33984 38.0583 3.53125 37.4021 2.94531C36.7458 2.35156 35.8201 2.05469 34.6248 2.05469C33.5154 2.05469 32.6482 2.30078 32.0232 2.79297C31.406 3.27734 31.0974 3.95312 31.0974 4.82031C31.0974 5.51562 31.3904 6.10547 31.9763 6.58984C32.5701 7.06641 33.574 7.50391 34.988 7.90234C36.4099 8.30078 37.5193 8.74219 38.3162 9.22656C39.1208 9.70312 39.7146 10.2617 40.0974 10.9023C40.488 11.543 40.6833 12.2969 40.6833 13.1641C40.6833 14.5469 40.1443 15.6562 39.0662 16.4922C37.988 17.3203 36.5466 17.7344 34.7419 17.7344C33.5701 17.7344 32.4763 17.5117 31.4607 17.0664C30.4451 16.6133 29.6599 15.9961 29.1052 15.2148C28.5583 14.4336 28.2849 13.5469 28.2849 12.5547H30.5466C30.5466 13.5859 30.9255 14.4023 31.6833 15.0039C32.449 15.5977 33.4685 15.8945 34.7419 15.8945C35.9294 15.8945 36.8396 15.6523 37.4724 15.168C38.1052 14.6836 38.4216 14.0234 38.4216 13.1875C38.4216 12.3516 38.1287 11.707 37.5427 11.2539C36.9568 10.793 35.8943 10.3398 34.3552 9.89453ZM48.6052 9.89453C46.6755 9.33984 45.2693 8.66016 44.3865 7.85547C43.5115 7.04297 43.074 6.04297 43.074 4.85547C43.074 3.51172 43.6091 2.40234 44.6794 1.52734C45.7576 0.644531 47.156 0.203125 48.8748 0.203125C50.0466 0.203125 51.0896 0.429687 52.0037 0.882812C52.9255 1.33594 53.6365 1.96094 54.1365 2.75781C54.6443 3.55469 54.8982 4.42578 54.8982 5.37109H52.6365C52.6365 4.33984 52.3083 3.53125 51.6521 2.94531C50.9958 2.35156 50.0701 2.05469 48.8748 2.05469C47.7654 2.05469 46.8982 2.30078 46.2732 2.79297C45.656 3.27734 45.3474 3.95312 45.3474 4.82031C45.3474 5.51562 45.6404 6.10547 46.2263 6.58984C46.8201 7.06641 47.824 7.50391 49.238 7.90234C50.6599 8.30078 51.7693 8.74219 52.5662 9.22656C53.3708 9.70312 53.9646 10.2617 54.3474 10.9023C54.738 11.543 54.9333 12.2969 54.9333 13.1641C54.9333 14.5469 54.3943 15.6562 53.3162 16.4922C52.238 17.3203 50.7966 17.7344 48.9919 17.7344C47.8201 17.7344 46.7263 17.5117 45.7107 17.0664C44.6951 16.6133 43.9099 15.9961 43.3552 15.2148C42.8083 14.4336 42.5349 13.5469 42.5349 12.5547H44.7966C44.7966 13.5859 45.1755 14.4023 45.9333 15.0039C46.699 15.5977 47.7185 15.8945 48.9919 15.8945C50.1794 15.8945 51.0896 15.6523 51.7224 15.168C52.3552 14.6836 52.6716 14.0234 52.6716 13.1875C52.6716 12.3516 52.3787 11.707 51.7927 11.2539C51.2068 10.793 50.1443 10.3398 48.6052 9.89453ZM60.2419 17.5H57.9919V0.4375H60.2419V17.5ZM74.0115 9.61328H66.6169V15.6602H75.2068V17.5H64.3669V0.4375H75.0896V2.28906H66.6169V7.77344H74.0115V9.61328Z" fill="black"/>
</svg>
