<svg width="165" height="48" viewBox="0 0 165 48" fill="none" xmlns="http://www.w3.org/2000/svg">
<g id="Logo">
<g id="Eduma">
<mask id="path-1-outside-1_204_31616" maskUnits="userSpaceOnUse" x="0" y="0" width="165" height="43" fill="black">
<rect fill="white" width="165" height="43"/>
<path d="M15.7728 5.64637H29.5859C30.0487 6.41243 30.3918 7.25031 30.6153 8.16001C30.8387 9.05376 30.9504 9.85972 30.9504 10.5779C30.9504 12.1898 30.6312 13.4028 29.9928 14.2167C29.3704 15.0307 28.4926 15.4376 27.3595 15.4376H17.7119C17.1214 15.4376 16.8261 15.669 16.8261 16.1319V16.3234C16.8261 16.4191 16.8421 16.483 16.874 16.5149H28.3171C28.6044 17.0097 28.8517 17.6321 29.0592 18.3822C29.2507 19.1961 29.3465 19.9223 29.3465 20.5607C29.3465 22.4599 28.9954 23.9441 28.2931 25.0134H23.0983C20.6724 25.0134 19.0286 25.1092 18.1667 25.3007C17.3049 25.4763 16.7703 25.6279 16.5628 25.7556C16.3553 25.8992 16.2516 26.0827 16.2516 26.3062C16.2516 26.5296 16.3633 26.7052 16.5867 26.8328C17.4166 26.5615 18.2864 26.37 19.1961 26.2583C20.3931 26.1466 21.6938 26.0907 23.0983 26.0907H29.8253C30.7988 27.4632 31.2856 29.1151 31.2856 31.0462C31.2856 32.1314 31.1499 33.1688 30.8786 34.1583C30.6073 35.1478 30.2003 35.9458 29.6577 36.5523H11.727C9.748 36.5523 8.16001 36.0735 6.96304 35.1159C5.65435 34.0945 5 32.5943 5 30.6153V7.8488C5 7.08274 5.87778 6.52415 7.63335 6.17304C9.38891 5.82192 12.1021 5.64637 15.7728 5.64637Z"/>
<path d="M46.966 20.0101C46.966 18.4141 46.8941 17.3209 46.7505 16.7304C46.6069 16.1239 46.3435 15.8207 45.9605 15.8207C45.7211 15.8207 45.5056 15.9005 45.3141 16.0601C45.3461 16.3473 45.3939 16.7304 45.4578 17.2091C45.5216 17.6879 45.5535 18.7094 45.5535 20.2734V21.8295C45.5535 22.9147 45.5296 23.7047 45.4817 24.1995C45.4338 24.6942 45.3939 25.1172 45.362 25.4683C45.3461 25.6598 45.3301 25.8513 45.3141 26.0428C45.5056 26.2024 45.7211 26.2822 45.9605 26.2822C46.3435 26.2822 46.6069 25.987 46.7505 25.3965C46.8941 24.79 46.966 23.6888 46.966 22.0928V20.0101ZM38.0365 36.5523C36.265 36.5523 34.8925 36.0815 33.9189 35.1398C32.9613 34.1982 32.4826 32.7778 32.4826 30.8786V9.33305C32.4826 8.12012 33.6955 7.0987 36.1214 6.26879C38.5632 5.42293 41.2843 5 44.2847 5C49.5674 5 53.693 6.27677 56.6615 8.83032C59.8534 11.5754 61.4494 15.669 61.4494 21.1113C61.4494 26.0109 59.9013 29.8093 56.8051 32.5065C53.7249 35.2037 49.4876 36.5523 44.0932 36.5523H38.0365Z"/>
<path d="M83.5216 5.21546C85.4367 5.21546 87.0965 5.73414 88.501 6.77152C89.9054 7.8089 90.6077 9.28517 90.6077 11.2003V24.5107C90.6077 28.5645 89.3708 31.6926 86.8971 33.895C84.4233 36.0815 81 37.1747 76.627 37.1747C72.27 37.1747 68.8786 36.0974 66.4527 33.9429C63.979 31.7883 62.7421 28.6443 62.7421 24.5107V7.44183C64.6253 5.94162 66.8038 5.19152 69.2776 5.19152C71.3523 5.19152 72.9962 5.74212 74.2091 6.84334C75.4221 7.9286 76.0285 9.58043 76.0285 11.7988V25.7556C76.2041 25.8832 76.4036 25.9471 76.627 25.9471C76.8664 25.9471 77.034 25.8912 77.1297 25.7795C77.2415 25.6518 77.2973 25.4204 77.2973 25.0852V11.7749C77.2973 10.7694 77.2494 9.97144 77.1537 9.38093C77.0579 8.79042 76.8664 8.19991 76.5791 7.60941C78.4943 6.01344 80.8084 5.21546 83.5216 5.21546Z"/>
<path d="M118.473 36.9592C116.287 36.9592 114.571 36.6001 113.326 35.882C111.986 35.1319 111.259 34.0705 111.148 32.698L110.932 30.4477C112.401 30.0966 113.637 29.1869 114.643 27.7186C114.914 27.3036 115.05 26.9445 115.05 26.6413C115.05 26.2264 114.842 26.0189 114.427 26.0189H114.356C114.34 26.0348 114.308 26.0428 114.26 26.0428C113.143 28.3889 111.331 29.5619 108.826 29.5619C107.549 29.5619 106.456 29.2826 105.546 28.7241C104.652 28.1655 103.83 27.1999 103.08 25.8274H102.937C102.506 25.8274 102.29 26.0109 102.29 26.378C102.29 26.6333 102.386 26.9206 102.577 27.2398C103.216 28.3091 104.014 29.147 104.971 29.7535C105.721 30.2642 106.511 30.5674 107.341 30.6632L107.15 35.1877C106.192 35.8101 105.179 36.257 104.11 36.5283C103.056 36.8156 101.548 36.9592 99.585 36.9592C97.6379 36.9592 95.8983 36.5762 94.3662 35.8101C92.4829 34.8685 91.5413 33.5598 91.5413 31.8841C91.5413 29.7934 91.9563 24.6304 92.7862 16.3952C93.233 12.1021 93.5921 9.10164 93.8634 7.39395C95.5073 5.92566 97.9332 5.19152 101.141 5.19152C103.471 5.19152 105.402 5.62243 106.934 6.48425L108.251 10.8891L107.413 14.4082C107.349 14.6476 107.317 14.879 107.317 15.1025C107.317 15.6611 107.637 15.9483 108.275 15.9643L110.549 6.50819C111.204 6.15708 112.057 5.85384 113.111 5.59849C114.164 5.32717 115.313 5.19152 116.558 5.19152C118.888 5.19152 120.612 5.59051 121.729 6.38849C122.862 7.17052 123.532 8.49517 123.74 10.3624C123.788 10.7136 123.86 11.2961 123.955 12.11C125.408 24.5905 126.134 31.9399 126.134 34.1583C124.362 36.0256 121.809 36.9592 118.473 36.9592Z"/>
<path d="M142.437 20.8001C142.564 20.9278 142.764 20.9916 143.035 20.9916C143.307 20.9916 143.538 20.9357 143.729 20.824C143.314 18.3981 143.035 16.9618 142.892 16.5149C142.716 16.0521 142.453 15.8207 142.102 15.8207C141.942 15.8207 141.75 15.8685 141.527 15.9643L142.437 20.8001ZM137.697 27.9819C137.537 28.2054 137.457 28.4128 137.457 28.6044C137.457 29.0672 137.888 29.4582 138.75 29.7774C139.628 30.0806 140.689 30.2721 141.934 30.3519C142.141 32.6501 142.365 33.9588 142.604 34.278C142.301 34.8685 141.463 35.467 140.091 36.0735C138.718 36.664 137.17 36.9592 135.446 36.9592C133.164 36.9592 131.209 36.4725 129.581 35.4989C127.953 34.5094 127.139 33.2406 127.139 31.6926C127.139 31.2776 127.179 30.9105 127.259 30.5913L132.358 7.80092C133.635 6.98698 135.159 6.34859 136.931 5.88576C138.702 5.42293 140.545 5.19152 142.461 5.19152C145.206 5.19152 147.552 5.65435 149.499 6.58001C151.717 7.63335 153.066 9.15749 153.545 11.1525L159.003 33.7274C157.343 35.882 154.638 36.9592 150.887 36.9592C149.068 36.9592 147.528 36.6321 146.267 35.9777C145.006 35.3234 144.272 34.3897 144.065 33.1768L143.538 30.2562C144.496 30.2402 145.421 30.0567 146.315 29.7056C147.209 29.3545 147.656 28.9874 147.656 28.6044C147.656 28.349 147.552 28.1415 147.344 27.9819C146.738 28.4128 145.996 28.74 145.118 28.9634C144.24 29.1869 143.426 29.2986 142.676 29.2986C140.522 29.2986 138.862 28.8597 137.697 27.9819Z"/>
</mask>
<path d="M15.7728 5.64637H29.5859C30.0487 6.41243 30.3918 7.25031 30.6153 8.16001C30.8387 9.05376 30.9504 9.85972 30.9504 10.5779C30.9504 12.1898 30.6312 13.4028 29.9928 14.2167C29.3704 15.0307 28.4926 15.4376 27.3595 15.4376H17.7119C17.1214 15.4376 16.8261 15.669 16.8261 16.1319V16.3234C16.8261 16.4191 16.8421 16.483 16.874 16.5149H28.3171C28.6044 17.0097 28.8517 17.6321 29.0592 18.3822C29.2507 19.1961 29.3465 19.9223 29.3465 20.5607C29.3465 22.4599 28.9954 23.9441 28.2931 25.0134H23.0983C20.6724 25.0134 19.0286 25.1092 18.1667 25.3007C17.3049 25.4763 16.7703 25.6279 16.5628 25.7556C16.3553 25.8992 16.2516 26.0827 16.2516 26.3062C16.2516 26.5296 16.3633 26.7052 16.5867 26.8328C17.4166 26.5615 18.2864 26.37 19.1961 26.2583C20.3931 26.1466 21.6938 26.0907 23.0983 26.0907H29.8253C30.7988 27.4632 31.2856 29.1151 31.2856 31.0462C31.2856 32.1314 31.1499 33.1688 30.8786 34.1583C30.6073 35.1478 30.2003 35.9458 29.6577 36.5523H11.727C9.748 36.5523 8.16001 36.0735 6.96304 35.1159C5.65435 34.0945 5 32.5943 5 30.6153V7.8488C5 7.08274 5.87778 6.52415 7.63335 6.17304C9.38891 5.82192 12.1021 5.64637 15.7728 5.64637Z" fill="#FFC700"/>
<path d="M46.966 20.0101C46.966 18.4141 46.8941 17.3209 46.7505 16.7304C46.6069 16.1239 46.3435 15.8207 45.9605 15.8207C45.7211 15.8207 45.5056 15.9005 45.3141 16.0601C45.3461 16.3473 45.3939 16.7304 45.4578 17.2091C45.5216 17.6879 45.5535 18.7094 45.5535 20.2734V21.8295C45.5535 22.9147 45.5296 23.7047 45.4817 24.1995C45.4338 24.6942 45.3939 25.1172 45.362 25.4683C45.3461 25.6598 45.3301 25.8513 45.3141 26.0428C45.5056 26.2024 45.7211 26.2822 45.9605 26.2822C46.3435 26.2822 46.6069 25.987 46.7505 25.3965C46.8941 24.79 46.966 23.6888 46.966 22.0928V20.0101ZM38.0365 36.5523C36.265 36.5523 34.8925 36.0815 33.9189 35.1398C32.9613 34.1982 32.4826 32.7778 32.4826 30.8786V9.33305C32.4826 8.12012 33.6955 7.0987 36.1214 6.26879C38.5632 5.42293 41.2843 5 44.2847 5C49.5674 5 53.693 6.27677 56.6615 8.83032C59.8534 11.5754 61.4494 15.669 61.4494 21.1113C61.4494 26.0109 59.9013 29.8093 56.8051 32.5065C53.7249 35.2037 49.4876 36.5523 44.0932 36.5523H38.0365Z" fill="#FFC700"/>
<path d="M83.5216 5.21546C85.4367 5.21546 87.0965 5.73414 88.501 6.77152C89.9054 7.8089 90.6077 9.28517 90.6077 11.2003V24.5107C90.6077 28.5645 89.3708 31.6926 86.8971 33.895C84.4233 36.0815 81 37.1747 76.627 37.1747C72.27 37.1747 68.8786 36.0974 66.4527 33.9429C63.979 31.7883 62.7421 28.6443 62.7421 24.5107V7.44183C64.6253 5.94162 66.8038 5.19152 69.2776 5.19152C71.3523 5.19152 72.9962 5.74212 74.2091 6.84334C75.4221 7.9286 76.0285 9.58043 76.0285 11.7988V25.7556C76.2041 25.8832 76.4036 25.9471 76.627 25.9471C76.8664 25.9471 77.034 25.8912 77.1297 25.7795C77.2415 25.6518 77.2973 25.4204 77.2973 25.0852V11.7749C77.2973 10.7694 77.2494 9.97144 77.1537 9.38093C77.0579 8.79042 76.8664 8.19991 76.5791 7.60941C78.4943 6.01344 80.8084 5.21546 83.5216 5.21546Z" fill="#FFC700"/>
<path d="M118.473 36.9592C116.287 36.9592 114.571 36.6001 113.326 35.882C111.986 35.1319 111.259 34.0705 111.148 32.698L110.932 30.4477C112.401 30.0966 113.637 29.1869 114.643 27.7186C114.914 27.3036 115.05 26.9445 115.05 26.6413C115.05 26.2264 114.842 26.0189 114.427 26.0189H114.356C114.34 26.0348 114.308 26.0428 114.26 26.0428C113.143 28.3889 111.331 29.5619 108.826 29.5619C107.549 29.5619 106.456 29.2826 105.546 28.7241C104.652 28.1655 103.83 27.1999 103.08 25.8274H102.937C102.506 25.8274 102.29 26.0109 102.29 26.378C102.29 26.6333 102.386 26.9206 102.577 27.2398C103.216 28.3091 104.014 29.147 104.971 29.7535C105.721 30.2642 106.511 30.5674 107.341 30.6632L107.15 35.1877C106.192 35.8101 105.179 36.257 104.11 36.5283C103.056 36.8156 101.548 36.9592 99.585 36.9592C97.6379 36.9592 95.8983 36.5762 94.3662 35.8101C92.4829 34.8685 91.5413 33.5598 91.5413 31.8841C91.5413 29.7934 91.9563 24.6304 92.7862 16.3952C93.233 12.1021 93.5921 9.10164 93.8634 7.39395C95.5073 5.92566 97.9332 5.19152 101.141 5.19152C103.471 5.19152 105.402 5.62243 106.934 6.48425L108.251 10.8891L107.413 14.4082C107.349 14.6476 107.317 14.879 107.317 15.1025C107.317 15.6611 107.637 15.9483 108.275 15.9643L110.549 6.50819C111.204 6.15708 112.057 5.85384 113.111 5.59849C114.164 5.32717 115.313 5.19152 116.558 5.19152C118.888 5.19152 120.612 5.59051 121.729 6.38849C122.862 7.17052 123.532 8.49517 123.74 10.3624C123.788 10.7136 123.86 11.2961 123.955 12.11C125.408 24.5905 126.134 31.9399 126.134 34.1583C124.362 36.0256 121.809 36.9592 118.473 36.9592Z" fill="#FFC700"/>
<path d="M142.437 20.8001C142.564 20.9278 142.764 20.9916 143.035 20.9916C143.307 20.9916 143.538 20.9357 143.729 20.824C143.314 18.3981 143.035 16.9618 142.892 16.5149C142.716 16.0521 142.453 15.8207 142.102 15.8207C141.942 15.8207 141.75 15.8685 141.527 15.9643L142.437 20.8001ZM137.697 27.9819C137.537 28.2054 137.457 28.4128 137.457 28.6044C137.457 29.0672 137.888 29.4582 138.75 29.7774C139.628 30.0806 140.689 30.2721 141.934 30.3519C142.141 32.6501 142.365 33.9588 142.604 34.278C142.301 34.8685 141.463 35.467 140.091 36.0735C138.718 36.664 137.17 36.9592 135.446 36.9592C133.164 36.9592 131.209 36.4725 129.581 35.4989C127.953 34.5094 127.139 33.2406 127.139 31.6926C127.139 31.2776 127.179 30.9105 127.259 30.5913L132.358 7.80092C133.635 6.98698 135.159 6.34859 136.931 5.88576C138.702 5.42293 140.545 5.19152 142.461 5.19152C145.206 5.19152 147.552 5.65435 149.499 6.58001C151.717 7.63335 153.066 9.15749 153.545 11.1525L159.003 33.7274C157.343 35.882 154.638 36.9592 150.887 36.9592C149.068 36.9592 147.528 36.6321 146.267 35.9777C145.006 35.3234 144.272 34.3897 144.065 33.1768L143.538 30.2562C144.496 30.2402 145.421 30.0567 146.315 29.7056C147.209 29.3545 147.656 28.9874 147.656 28.6044C147.656 28.349 147.552 28.1415 147.344 27.9819C146.738 28.4128 145.996 28.74 145.118 28.9634C144.24 29.1869 143.426 29.2986 142.676 29.2986C140.522 29.2986 138.862 28.8597 137.697 27.9819Z" fill="#FFC700"/>
<path d="M15.7728 5.64637H29.5859C30.0487 6.41243 30.3918 7.25031 30.6153 8.16001C30.8387 9.05376 30.9504 9.85972 30.9504 10.5779C30.9504 12.1898 30.6312 13.4028 29.9928 14.2167C29.3704 15.0307 28.4926 15.4376 27.3595 15.4376H17.7119C17.1214 15.4376 16.8261 15.669 16.8261 16.1319V16.3234C16.8261 16.4191 16.8421 16.483 16.874 16.5149H28.3171C28.6044 17.0097 28.8517 17.6321 29.0592 18.3822C29.2507 19.1961 29.3465 19.9223 29.3465 20.5607C29.3465 22.4599 28.9954 23.9441 28.2931 25.0134H23.0983C20.6724 25.0134 19.0286 25.1092 18.1667 25.3007C17.3049 25.4763 16.7703 25.6279 16.5628 25.7556C16.3553 25.8992 16.2516 26.0827 16.2516 26.3062C16.2516 26.5296 16.3633 26.7052 16.5867 26.8328C17.4166 26.5615 18.2864 26.37 19.1961 26.2583C20.3931 26.1466 21.6938 26.0907 23.0983 26.0907H29.8253C30.7988 27.4632 31.2856 29.1151 31.2856 31.0462C31.2856 32.1314 31.1499 33.1688 30.8786 34.1583C30.6073 35.1478 30.2003 35.9458 29.6577 36.5523H11.727C9.748 36.5523 8.16001 36.0735 6.96304 35.1159C5.65435 34.0945 5 32.5943 5 30.6153V7.8488C5 7.08274 5.87778 6.52415 7.63335 6.17304C9.38891 5.82192 12.1021 5.64637 15.7728 5.64637Z" stroke="#003AAA" stroke-width="10" mask="url(#path-1-outside-1_204_31616)"/>
<path d="M46.966 20.0101C46.966 18.4141 46.8941 17.3209 46.7505 16.7304C46.6069 16.1239 46.3435 15.8207 45.9605 15.8207C45.7211 15.8207 45.5056 15.9005 45.3141 16.0601C45.3461 16.3473 45.3939 16.7304 45.4578 17.2091C45.5216 17.6879 45.5535 18.7094 45.5535 20.2734V21.8295C45.5535 22.9147 45.5296 23.7047 45.4817 24.1995C45.4338 24.6942 45.3939 25.1172 45.362 25.4683C45.3461 25.6598 45.3301 25.8513 45.3141 26.0428C45.5056 26.2024 45.7211 26.2822 45.9605 26.2822C46.3435 26.2822 46.6069 25.987 46.7505 25.3965C46.8941 24.79 46.966 23.6888 46.966 22.0928V20.0101ZM38.0365 36.5523C36.265 36.5523 34.8925 36.0815 33.9189 35.1398C32.9613 34.1982 32.4826 32.7778 32.4826 30.8786V9.33305C32.4826 8.12012 33.6955 7.0987 36.1214 6.26879C38.5632 5.42293 41.2843 5 44.2847 5C49.5674 5 53.693 6.27677 56.6615 8.83032C59.8534 11.5754 61.4494 15.669 61.4494 21.1113C61.4494 26.0109 59.9013 29.8093 56.8051 32.5065C53.7249 35.2037 49.4876 36.5523 44.0932 36.5523H38.0365Z" stroke="#003AAA" stroke-width="10" mask="url(#path-1-outside-1_204_31616)"/>
<path d="M83.5216 5.21546C85.4367 5.21546 87.0965 5.73414 88.501 6.77152C89.9054 7.8089 90.6077 9.28517 90.6077 11.2003V24.5107C90.6077 28.5645 89.3708 31.6926 86.8971 33.895C84.4233 36.0815 81 37.1747 76.627 37.1747C72.27 37.1747 68.8786 36.0974 66.4527 33.9429C63.979 31.7883 62.7421 28.6443 62.7421 24.5107V7.44183C64.6253 5.94162 66.8038 5.19152 69.2776 5.19152C71.3523 5.19152 72.9962 5.74212 74.2091 6.84334C75.4221 7.9286 76.0285 9.58043 76.0285 11.7988V25.7556C76.2041 25.8832 76.4036 25.9471 76.627 25.9471C76.8664 25.9471 77.034 25.8912 77.1297 25.7795C77.2415 25.6518 77.2973 25.4204 77.2973 25.0852V11.7749C77.2973 10.7694 77.2494 9.97144 77.1537 9.38093C77.0579 8.79042 76.8664 8.19991 76.5791 7.60941C78.4943 6.01344 80.8084 5.21546 83.5216 5.21546Z" stroke="#003AAA" stroke-width="10" mask="url(#path-1-outside-1_204_31616)"/>
<path d="M118.473 36.9592C116.287 36.9592 114.571 36.6001 113.326 35.882C111.986 35.1319 111.259 34.0705 111.148 32.698L110.932 30.4477C112.401 30.0966 113.637 29.1869 114.643 27.7186C114.914 27.3036 115.05 26.9445 115.05 26.6413C115.05 26.2264 114.842 26.0189 114.427 26.0189H114.356C114.34 26.0348 114.308 26.0428 114.26 26.0428C113.143 28.3889 111.331 29.5619 108.826 29.5619C107.549 29.5619 106.456 29.2826 105.546 28.7241C104.652 28.1655 103.83 27.1999 103.08 25.8274H102.937C102.506 25.8274 102.29 26.0109 102.29 26.378C102.29 26.6333 102.386 26.9206 102.577 27.2398C103.216 28.3091 104.014 29.147 104.971 29.7535C105.721 30.2642 106.511 30.5674 107.341 30.6632L107.15 35.1877C106.192 35.8101 105.179 36.257 104.11 36.5283C103.056 36.8156 101.548 36.9592 99.585 36.9592C97.6379 36.9592 95.8983 36.5762 94.3662 35.8101C92.4829 34.8685 91.5413 33.5598 91.5413 31.8841C91.5413 29.7934 91.9563 24.6304 92.7862 16.3952C93.233 12.1021 93.5921 9.10164 93.8634 7.39395C95.5073 5.92566 97.9332 5.19152 101.141 5.19152C103.471 5.19152 105.402 5.62243 106.934 6.48425L108.251 10.8891L107.413 14.4082C107.349 14.6476 107.317 14.879 107.317 15.1025C107.317 15.6611 107.637 15.9483 108.275 15.9643L110.549 6.50819C111.204 6.15708 112.057 5.85384 113.111 5.59849C114.164 5.32717 115.313 5.19152 116.558 5.19152C118.888 5.19152 120.612 5.59051 121.729 6.38849C122.862 7.17052 123.532 8.49517 123.74 10.3624C123.788 10.7136 123.86 11.2961 123.955 12.11C125.408 24.5905 126.134 31.9399 126.134 34.1583C124.362 36.0256 121.809 36.9592 118.473 36.9592Z" stroke="#003AAA" stroke-width="10" mask="url(#path-1-outside-1_204_31616)"/>
<path d="M142.437 20.8001C142.564 20.9278 142.764 20.9916 143.035 20.9916C143.307 20.9916 143.538 20.9357 143.729 20.824C143.314 18.3981 143.035 16.9618 142.892 16.5149C142.716 16.0521 142.453 15.8207 142.102 15.8207C141.942 15.8207 141.75 15.8685 141.527 15.9643L142.437 20.8001ZM137.697 27.9819C137.537 28.2054 137.457 28.4128 137.457 28.6044C137.457 29.0672 137.888 29.4582 138.75 29.7774C139.628 30.0806 140.689 30.2721 141.934 30.3519C142.141 32.6501 142.365 33.9588 142.604 34.278C142.301 34.8685 141.463 35.467 140.091 36.0735C138.718 36.664 137.17 36.9592 135.446 36.9592C133.164 36.9592 131.209 36.4725 129.581 35.4989C127.953 34.5094 127.139 33.2406 127.139 31.6926C127.139 31.2776 127.179 30.9105 127.259 30.5913L132.358 7.80092C133.635 6.98698 135.159 6.34859 136.931 5.88576C138.702 5.42293 140.545 5.19152 142.461 5.19152C145.206 5.19152 147.552 5.65435 149.499 6.58001C151.717 7.63335 153.066 9.15749 153.545 11.1525L159.003 33.7274C157.343 35.882 154.638 36.9592 150.887 36.9592C149.068 36.9592 147.528 36.6321 146.267 35.9777C145.006 35.3234 144.272 34.3897 144.065 33.1768L143.538 30.2562C144.496 30.2402 145.421 30.0567 146.315 29.7056C147.209 29.3545 147.656 28.9874 147.656 28.6044C147.656 28.349 147.552 28.1415 147.344 27.9819C146.738 28.4128 145.996 28.74 145.118 28.9634C144.24 29.1869 143.426 29.2986 142.676 29.2986C140.522 29.2986 138.862 28.8597 137.697 27.9819Z" stroke="#003AAA" stroke-width="10" mask="url(#path-1-outside-1_204_31616)"/>
</g>
<g id="Ecommerce">
<mask id="path-2-outside-2_204_31616" maskUnits="userSpaceOnUse" x="20.5005" y="29.1301" width="124" height="19" fill="black">
<rect fill="white" x="20.5005" y="29.1301" width="124" height="19"/>
<path d="M24.4734 44.8196C23.9361 44.8196 23.5005 44.384 23.5005 43.8467V43.7214C23.5005 43.3349 23.771 43.001 24.1491 42.9209C24.5273 42.8408 24.7978 42.5069 24.7978 42.1204V35.0183C24.7978 34.6318 24.5273 34.298 24.1491 34.2178C23.771 34.1377 23.5005 33.8039 23.5005 33.4173V33.2882C23.5005 32.7483 23.9382 32.3105 24.4781 32.3105H32.4923C33.0445 32.3105 33.4923 32.7583 33.4923 33.3105V34.9189C33.4923 35.4712 33.0445 35.9189 32.4923 35.9189H31.8608C31.499 35.9189 31.2004 35.6359 31.1812 35.2746C31.1619 34.9133 30.8633 34.6302 30.5015 34.6302H28.8134C28.2611 34.6302 27.8134 35.0779 27.8134 35.6302V36.199C27.8134 36.7513 28.2611 37.199 28.8134 37.199H30.8083C31.3606 37.199 31.8083 37.6468 31.8083 38.199V38.5101C31.8083 39.0624 31.3606 39.5101 30.8083 39.5101H28.8134C28.2611 39.5101 27.8134 39.9578 27.8134 40.5101V41.4913C27.8134 42.0436 28.2611 42.4913 28.8134 42.4913H30.6347C31.0131 42.4913 31.3252 42.1948 31.3444 41.8169C31.3637 41.439 31.6757 41.1425 32.0541 41.1425H32.6297C33.182 41.1425 33.6297 41.5902 33.6297 42.1425V43.8196C33.6297 44.3719 33.182 44.8196 32.6297 44.8196H24.4734Z"/>
<path d="M40.898 45C39.7067 45 38.6442 44.7594 37.7106 44.2783C36.777 43.7972 36.0439 43.1013 35.5112 42.1906C34.9786 41.2742 34.7122 40.1631 34.7122 38.8572V38.2816C34.7122 37.0788 34.9557 36.0163 35.4425 35.0942C35.9351 34.1663 36.6338 33.4417 37.5388 32.9205C38.4495 32.3936 39.5291 32.1301 40.7777 32.1301C41.6483 32.1301 42.476 32.2475 43.2606 32.4824C43.9086 32.6702 44.518 32.9696 45.089 33.3806C45.3303 33.5544 45.46 33.84 45.46 34.1374V35.8897C45.46 36.442 45.0123 36.8897 44.46 36.8897H44.1196C43.6293 36.8897 43.2114 36.5343 43.1326 36.0504L43.0379 35.4685C42.9936 35.1967 42.8422 34.9495 42.5989 34.8205C42.5177 34.7773 42.4347 34.7368 42.35 34.6989C42.138 34.6016 41.9089 34.5271 41.6627 34.4756C41.4221 34.424 41.1615 34.3982 40.8808 34.3982C40.2451 34.3982 39.6895 34.55 39.2141 34.8536C38.7387 35.1572 38.3693 35.5982 38.1058 36.1767C37.8481 36.7494 37.7192 37.4453 37.7192 38.2644V38.8572C37.7192 39.6247 37.8538 40.3005 38.123 40.8847C38.3922 41.4632 38.7674 41.9157 39.2485 42.2422C39.7353 42.5686 40.2966 42.7319 40.9324 42.7319C41.2703 42.7319 41.614 42.6975 41.9634 42.6288C42.12 42.5954 42.2744 42.5574 42.4265 42.5148C42.7713 42.4182 43.0141 42.119 43.0741 41.766L43.1364 41.3994C43.2181 40.9186 43.6346 40.5669 44.1223 40.5669H44.4772C45.0295 40.5669 45.4772 41.0146 45.4772 41.5669V43.1948C45.4772 43.5236 45.3181 43.836 45.0308 43.996C44.6156 44.2271 44.1287 44.4357 43.5699 44.622C42.7967 44.874 41.9061 45 40.898 45Z"/>
<path d="M52.3933 45C51.5284 45 50.7323 44.8425 50.0049 44.5275C49.2832 44.2067 48.656 43.76 48.1234 43.1872C47.5907 42.6145 47.1783 41.9443 46.8862 41.1768C46.5998 40.4036 46.4566 39.5645 46.4566 38.6596V38.462C46.4566 37.5627 46.5998 36.7294 46.8862 35.9619C47.1783 35.1944 47.5878 34.5243 48.1148 33.9515C48.6474 33.3787 49.2746 32.932 49.9963 32.6112C50.718 32.2905 51.5112 32.1301 52.3761 32.1301C53.2238 32.1301 54.0113 32.2905 54.7387 32.6112C55.4661 32.932 56.1019 33.3787 56.646 33.9515C57.1959 34.5243 57.6226 35.1944 57.9261 35.9619C58.2297 36.7294 58.3815 37.5627 58.3815 38.462V38.6596C58.3815 39.5645 58.2297 40.4036 57.9261 41.1768C57.6226 41.9443 57.1987 42.6145 56.6546 43.1872C56.1105 43.76 55.4747 44.2067 54.7473 44.5275C54.0199 44.8425 53.2352 45 52.3933 45ZM52.3933 42.7147C53.0233 42.7147 53.5617 42.5457 54.0085 42.2078C54.4552 41.8699 54.796 41.3974 55.0308 40.7902C55.2657 40.1831 55.3831 39.4729 55.3831 38.6596V38.4448C55.3831 37.6487 55.2628 36.9499 55.0222 36.3485C54.7874 35.7414 54.4466 35.2688 53.9999 34.9309C53.5531 34.593 53.0119 34.424 52.3761 34.424C51.706 34.424 51.1561 34.5901 50.7266 34.9223C50.3027 35.2545 49.9877 35.7213 49.7815 36.3227C49.5753 36.9241 49.4722 37.6315 49.4722 38.4448V38.6596C49.4722 39.4729 49.5753 40.186 49.7815 40.7988C49.9934 41.4059 50.3142 41.8785 50.7437 42.2164C51.179 42.5486 51.7289 42.7147 52.3933 42.7147Z"/>
<path d="M60.111 44.8196C59.5734 44.8196 59.1375 44.3837 59.1375 43.8461V43.7172C59.1375 43.333 59.4061 43.0011 59.7819 42.9209C60.1576 42.8407 60.4262 42.5088 60.4262 42.1246V35.0141C60.4262 34.6299 60.1576 34.298 59.7819 34.2178C59.4061 34.1377 59.1375 33.8057 59.1375 33.4215V33.2888C59.1375 32.7485 59.5755 32.3105 60.1158 32.3105H60.4262H64.3416C64.761 32.3105 65.1358 32.5723 65.2804 32.966L68.0551 40.5256C68.0604 40.5401 68.0742 40.5497 68.0896 40.5497C68.1051 40.5497 68.119 40.5399 68.1242 40.5253L70.8169 32.9746C70.9589 32.5764 71.336 32.3105 71.7588 32.3105H75.9096C76.4496 32.3105 76.8873 32.7483 76.8873 33.2882V33.4173C76.8873 33.8039 76.6168 34.1377 76.2386 34.2178C75.8605 34.298 75.59 34.6318 75.59 35.0183V42.1204C75.59 42.5069 75.8605 42.8408 76.2386 42.9209C76.6168 43.001 76.8873 43.3349 76.8873 43.7214V43.8467C76.8873 44.384 76.4517 44.8196 75.9144 44.8196H72.2552C71.7197 44.8196 71.2857 44.3856 71.2857 43.8501V43.7466C71.2857 43.3461 71.5677 43.0009 71.9601 42.9209C72.3526 42.8409 72.6346 42.4957 72.6346 42.0951V41.1511L72.703 35.2926C72.7032 35.2773 72.6921 35.2641 72.677 35.2616C72.6624 35.2592 72.648 35.2675 72.6428 35.2814L69.3538 44.1667C69.2085 44.5591 68.8343 44.8196 68.416 44.8196H67.4306C67.0154 44.8196 66.6434 44.563 66.4959 44.1748L63.1598 35.3958C63.1539 35.3802 63.1379 35.3708 63.1214 35.3731C63.1033 35.3757 63.0901 35.3916 63.0908 35.4098L63.2957 40.7387V42.0446C63.2957 42.4732 63.6006 42.8412 64.0217 42.9209C64.4428 43.0006 64.7477 43.3686 64.7477 43.7972V43.8563C64.7477 44.3883 64.3164 44.8196 63.7844 44.8196H60.111Z"/>
<path d="M78.3075 44.8196C77.7699 44.8196 77.334 44.3837 77.334 43.8461V43.7172C77.334 43.333 77.6026 43.0011 77.9784 42.9209C78.3542 42.8407 78.6227 42.5088 78.6227 42.1246V35.0141C78.6227 34.6299 78.3542 34.298 77.9784 34.2178C77.6026 34.1377 77.334 33.8057 77.334 33.4215V33.2888C77.334 32.7485 77.772 32.3105 78.3123 32.3105H78.6227H82.5381C82.9575 32.3105 83.3324 32.5723 83.4769 32.966L86.2516 40.5256C86.257 40.5401 86.2707 40.5497 86.2861 40.5497C86.3017 40.5497 86.3155 40.5399 86.3207 40.5253L89.0134 32.9746C89.1555 32.5764 89.5326 32.3105 89.9553 32.3105H94.1062C94.6461 32.3105 95.0838 32.7483 95.0838 33.2882V33.4173C95.0838 33.8039 94.8133 34.1377 94.4352 34.2178C94.057 34.298 93.7865 34.6318 93.7865 35.0183V42.1204C93.7865 42.5069 94.057 42.8408 94.4352 42.9209C94.8133 43.001 95.0838 43.3349 95.0838 43.7214V43.8467C95.0838 44.384 94.6482 44.8196 94.1109 44.8196H90.4517C89.9163 44.8196 89.4822 44.3856 89.4822 43.8501V43.7466C89.4822 43.3461 89.7642 43.0009 90.1567 42.9209C90.5491 42.8409 90.8311 42.4957 90.8311 42.0951V41.1511L90.8995 35.2926C90.8997 35.2773 90.8887 35.2641 90.8736 35.2616C90.8589 35.2592 90.8445 35.2675 90.8394 35.2814L87.5503 44.1667C87.405 44.5591 87.0309 44.8196 86.6125 44.8196H85.6272C85.2119 44.8196 84.8399 44.563 84.6924 44.1748L81.3564 35.3958C81.3504 35.3802 81.3345 35.3708 81.3179 35.3731C81.2998 35.3757 81.2866 35.3916 81.2873 35.4098L81.4923 40.7387V42.0446C81.4923 42.4732 81.7971 42.8412 82.2182 42.9209C82.6394 43.0006 82.9442 43.3686 82.9442 43.7972V43.8563C82.9442 44.3883 82.5129 44.8196 81.981 44.8196H78.3075Z"/>
<path d="M96.5722 44.8196C96.0349 44.8196 95.5993 44.384 95.5993 43.8467V43.7214C95.5993 43.3349 95.8698 43.001 96.2479 42.9209C96.6261 42.8408 96.8966 42.5069 96.8966 42.1204V35.0183C96.8966 34.6318 96.6261 34.298 96.2479 34.2178C95.8698 34.1377 95.5993 33.8039 95.5993 33.4173V33.2882C95.5993 32.7483 96.037 32.3105 96.577 32.3105H104.591C105.143 32.3105 105.591 32.7583 105.591 33.3105V34.9189C105.591 35.4712 105.143 35.9189 104.591 35.9189H103.96C103.598 35.9189 103.299 35.6359 103.28 35.2746C103.261 34.9133 102.962 34.6302 102.6 34.6302H100.912C100.36 34.6302 99.9122 35.0779 99.9122 35.6302V36.199C99.9122 36.7513 100.36 37.199 100.912 37.199H102.907C103.459 37.199 103.907 37.6468 103.907 38.199V38.5101C103.907 39.0624 103.459 39.5101 102.907 39.5101H100.912C100.36 39.5101 99.9122 39.9578 99.9122 40.5101V41.4913C99.9122 42.0436 100.36 42.4913 100.912 42.4913H102.734C103.112 42.4913 103.424 42.1948 103.443 41.8169C103.462 41.439 103.774 41.1425 104.153 41.1425H104.729C105.281 41.1425 105.729 41.5902 105.729 42.1425V43.8196C105.729 44.3719 105.281 44.8196 104.729 44.8196H96.5722Z"/>
<path d="M107.827 44.8196C107.29 44.8196 106.854 44.384 106.854 43.8467V43.7214C106.854 43.3349 107.124 43.001 107.503 42.9209C107.881 42.8408 108.151 42.5069 108.151 42.1204V35.0183C108.151 34.6318 107.881 34.298 107.503 34.2178C107.124 34.1377 106.854 33.8039 106.854 33.4173V33.2843C106.854 32.7418 107.294 32.302 107.836 32.302H113.005C113.996 32.302 114.855 32.4595 115.583 32.7745C116.31 33.0895 116.872 33.5391 117.267 34.1233C117.662 34.7018 117.86 35.3891 117.86 36.1853C117.86 36.9184 117.659 37.6 117.258 38.23C116.863 38.86 116.319 39.3669 115.626 39.7507C114.933 40.1287 114.142 40.3148 113.255 40.3091L112.179 40.2958C111.622 40.289 111.167 40.7387 111.167 41.2958V42.1204C111.167 42.5069 111.437 42.8408 111.816 42.9209C112.194 43.001 112.464 43.3349 112.464 43.7214V43.8467C112.464 44.384 112.029 44.8196 111.491 44.8196H107.827ZM115.488 44.8196C115.061 44.8196 114.682 44.549 114.543 44.1458L113.419 40.8885C113.238 40.365 113.517 39.7945 114.041 39.6158L114.82 39.3503C115.321 39.1795 115.868 39.4285 116.068 39.9184L117.05 42.3209C117.165 42.601 117.405 42.8101 117.699 42.8845C118.122 42.9918 118.418 43.3726 118.418 43.809V43.8339C118.418 44.3783 117.977 44.8196 117.432 44.8196H115.488ZM111.167 36.9723C111.167 37.5245 111.615 37.9723 112.167 37.9723H113.04C113.624 37.9723 114.074 37.8377 114.389 37.5685C114.704 37.2935 114.861 36.8983 114.861 36.3829C114.861 35.8502 114.701 35.4235 114.38 35.1027C114.059 34.7763 113.601 34.613 113.005 34.613H112.167C111.615 34.613 111.167 35.0607 111.167 35.613V36.9723Z"/>
<path d="M125.214 45C124.022 45 122.96 44.7594 122.026 44.2783C121.093 43.7972 120.36 43.1013 119.827 42.1906C119.294 41.2742 119.028 40.1631 119.028 38.8572V38.2816C119.028 37.0788 119.271 36.0163 119.758 35.0942C120.251 34.1663 120.95 33.4417 121.855 32.9205C122.765 32.3936 123.845 32.1301 125.093 32.1301C125.964 32.1301 126.792 32.2475 127.576 32.4824C128.224 32.6702 128.834 32.9696 129.405 33.3806C129.646 33.5544 129.776 33.84 129.776 34.1374V35.8897C129.776 36.442 129.328 36.8897 128.776 36.8897H128.435C127.945 36.8897 127.527 36.5343 127.448 36.0504L127.354 35.4685C127.309 35.1967 127.158 34.9495 126.915 34.8205C126.833 34.7773 126.75 34.7368 126.666 34.6989C126.454 34.6016 126.225 34.5271 125.978 34.4756C125.738 34.424 125.477 34.3982 125.197 34.3982C124.561 34.3982 124.005 34.55 123.53 34.8536C123.054 35.1572 122.685 35.5982 122.422 36.1767C122.164 36.7494 122.035 37.4453 122.035 38.2644V38.8572C122.035 39.6247 122.17 40.3005 122.439 40.8847C122.708 41.4632 123.083 41.9157 123.564 42.2422C124.051 42.5686 124.612 42.7319 125.248 42.7319C125.586 42.7319 125.93 42.6975 126.279 42.6288C126.436 42.5954 126.59 42.5574 126.742 42.5148C127.087 42.4182 127.33 42.119 127.39 41.766L127.452 41.3994C127.534 40.9186 127.95 40.5669 128.438 40.5669H128.793C129.345 40.5669 129.793 41.0146 129.793 41.5669V43.1948C129.793 43.5236 129.634 43.836 129.347 43.996C128.931 44.2271 128.444 44.4357 127.886 44.622C127.112 44.874 126.222 45 125.214 45Z"/>
<path d="M131.556 44.8196C131.019 44.8196 130.583 44.384 130.583 43.8467V43.7214C130.583 43.3349 130.854 43.001 131.232 42.9209C131.61 42.8408 131.881 42.5069 131.881 42.1204V35.0183C131.881 34.6318 131.61 34.298 131.232 34.2178C130.854 34.1377 130.583 33.8039 130.583 33.4173V33.2882C130.583 32.7483 131.021 32.3105 131.561 32.3105H139.575C140.127 32.3105 140.575 32.7583 140.575 33.3105V34.9189C140.575 35.4712 140.127 35.9189 139.575 35.9189H138.944C138.582 35.9189 138.283 35.6359 138.264 35.2746C138.245 34.9133 137.946 34.6302 137.584 34.6302H135.896C135.344 34.6302 134.896 35.0779 134.896 35.6302V36.199C134.896 36.7513 135.344 37.199 135.896 37.199H137.891C138.444 37.199 138.891 37.6468 138.891 38.199V38.5101C138.891 39.0624 138.444 39.5101 137.891 39.5101H135.896C135.344 39.5101 134.896 39.9578 134.896 40.5101V41.4913C134.896 42.0436 135.344 42.4913 135.896 42.4913H137.718C138.096 42.4913 138.408 42.1948 138.427 41.8169C138.447 41.439 138.759 41.1425 139.137 41.1425H139.713C140.265 41.1425 140.713 41.5902 140.713 42.1425V43.8196C140.713 44.3719 140.265 44.8196 139.713 44.8196H131.556Z"/>
</mask>
<path d="M24.4734 44.8196C23.9361 44.8196 23.5005 44.384 23.5005 43.8467V43.7214C23.5005 43.3349 23.771 43.001 24.1491 42.9209C24.5273 42.8408 24.7978 42.5069 24.7978 42.1204V35.0183C24.7978 34.6318 24.5273 34.298 24.1491 34.2178C23.771 34.1377 23.5005 33.8039 23.5005 33.4173V33.2882C23.5005 32.7483 23.9382 32.3105 24.4781 32.3105H32.4923C33.0445 32.3105 33.4923 32.7583 33.4923 33.3105V34.9189C33.4923 35.4712 33.0445 35.9189 32.4923 35.9189H31.8608C31.499 35.9189 31.2004 35.6359 31.1812 35.2746C31.1619 34.9133 30.8633 34.6302 30.5015 34.6302H28.8134C28.2611 34.6302 27.8134 35.0779 27.8134 35.6302V36.199C27.8134 36.7513 28.2611 37.199 28.8134 37.199H30.8083C31.3606 37.199 31.8083 37.6468 31.8083 38.199V38.5101C31.8083 39.0624 31.3606 39.5101 30.8083 39.5101H28.8134C28.2611 39.5101 27.8134 39.9578 27.8134 40.5101V41.4913C27.8134 42.0436 28.2611 42.4913 28.8134 42.4913H30.6347C31.0131 42.4913 31.3252 42.1948 31.3444 41.8169C31.3637 41.439 31.6757 41.1425 32.0541 41.1425H32.6297C33.182 41.1425 33.6297 41.5902 33.6297 42.1425V43.8196C33.6297 44.3719 33.182 44.8196 32.6297 44.8196H24.4734Z" fill="white"/>
<path d="M40.898 45C39.7067 45 38.6442 44.7594 37.7106 44.2783C36.777 43.7972 36.0439 43.1013 35.5112 42.1906C34.9786 41.2742 34.7122 40.1631 34.7122 38.8572V38.2816C34.7122 37.0788 34.9557 36.0163 35.4425 35.0942C35.9351 34.1663 36.6338 33.4417 37.5388 32.9205C38.4495 32.3936 39.5291 32.1301 40.7777 32.1301C41.6483 32.1301 42.476 32.2475 43.2606 32.4824C43.9086 32.6702 44.518 32.9696 45.089 33.3806C45.3303 33.5544 45.46 33.84 45.46 34.1374V35.8897C45.46 36.442 45.0123 36.8897 44.46 36.8897H44.1196C43.6293 36.8897 43.2114 36.5343 43.1326 36.0504L43.0379 35.4685C42.9936 35.1967 42.8422 34.9495 42.5989 34.8205C42.5177 34.7773 42.4347 34.7368 42.35 34.6989C42.138 34.6016 41.9089 34.5271 41.6627 34.4756C41.4221 34.424 41.1615 34.3982 40.8808 34.3982C40.2451 34.3982 39.6895 34.55 39.2141 34.8536C38.7387 35.1572 38.3693 35.5982 38.1058 36.1767C37.8481 36.7494 37.7192 37.4453 37.7192 38.2644V38.8572C37.7192 39.6247 37.8538 40.3005 38.123 40.8847C38.3922 41.4632 38.7674 41.9157 39.2485 42.2422C39.7353 42.5686 40.2966 42.7319 40.9324 42.7319C41.2703 42.7319 41.614 42.6975 41.9634 42.6288C42.12 42.5954 42.2744 42.5574 42.4265 42.5148C42.7713 42.4182 43.0141 42.119 43.0741 41.766L43.1364 41.3994C43.2181 40.9186 43.6346 40.5669 44.1223 40.5669H44.4772C45.0295 40.5669 45.4772 41.0146 45.4772 41.5669V43.1948C45.4772 43.5236 45.3181 43.836 45.0308 43.996C44.6156 44.2271 44.1287 44.4357 43.5699 44.622C42.7967 44.874 41.9061 45 40.898 45Z" fill="white"/>
<path d="M52.3933 45C51.5284 45 50.7323 44.8425 50.0049 44.5275C49.2832 44.2067 48.656 43.76 48.1234 43.1872C47.5907 42.6145 47.1783 41.9443 46.8862 41.1768C46.5998 40.4036 46.4566 39.5645 46.4566 38.6596V38.462C46.4566 37.5627 46.5998 36.7294 46.8862 35.9619C47.1783 35.1944 47.5878 34.5243 48.1148 33.9515C48.6474 33.3787 49.2746 32.932 49.9963 32.6112C50.718 32.2905 51.5112 32.1301 52.3761 32.1301C53.2238 32.1301 54.0113 32.2905 54.7387 32.6112C55.4661 32.932 56.1019 33.3787 56.646 33.9515C57.1959 34.5243 57.6226 35.1944 57.9261 35.9619C58.2297 36.7294 58.3815 37.5627 58.3815 38.462V38.6596C58.3815 39.5645 58.2297 40.4036 57.9261 41.1768C57.6226 41.9443 57.1987 42.6145 56.6546 43.1872C56.1105 43.76 55.4747 44.2067 54.7473 44.5275C54.0199 44.8425 53.2352 45 52.3933 45ZM52.3933 42.7147C53.0233 42.7147 53.5617 42.5457 54.0085 42.2078C54.4552 41.8699 54.796 41.3974 55.0308 40.7902C55.2657 40.1831 55.3831 39.4729 55.3831 38.6596V38.4448C55.3831 37.6487 55.2628 36.9499 55.0222 36.3485C54.7874 35.7414 54.4466 35.2688 53.9999 34.9309C53.5531 34.593 53.0119 34.424 52.3761 34.424C51.706 34.424 51.1561 34.5901 50.7266 34.9223C50.3027 35.2545 49.9877 35.7213 49.7815 36.3227C49.5753 36.9241 49.4722 37.6315 49.4722 38.4448V38.6596C49.4722 39.4729 49.5753 40.186 49.7815 40.7988C49.9934 41.4059 50.3142 41.8785 50.7437 42.2164C51.179 42.5486 51.7289 42.7147 52.3933 42.7147Z" fill="white"/>
<path d="M60.111 44.8196C59.5734 44.8196 59.1375 44.3837 59.1375 43.8461V43.7172C59.1375 43.333 59.4061 43.0011 59.7819 42.9209C60.1576 42.8407 60.4262 42.5088 60.4262 42.1246V35.0141C60.4262 34.6299 60.1576 34.298 59.7819 34.2178C59.4061 34.1377 59.1375 33.8057 59.1375 33.4215V33.2888C59.1375 32.7485 59.5755 32.3105 60.1158 32.3105H60.4262H64.3416C64.761 32.3105 65.1358 32.5723 65.2804 32.966L68.0551 40.5256C68.0604 40.5401 68.0742 40.5497 68.0896 40.5497C68.1051 40.5497 68.119 40.5399 68.1242 40.5253L70.8169 32.9746C70.9589 32.5764 71.336 32.3105 71.7588 32.3105H75.9096C76.4496 32.3105 76.8873 32.7483 76.8873 33.2882V33.4173C76.8873 33.8039 76.6168 34.1377 76.2386 34.2178C75.8605 34.298 75.59 34.6318 75.59 35.0183V42.1204C75.59 42.5069 75.8605 42.8408 76.2386 42.9209C76.6168 43.001 76.8873 43.3349 76.8873 43.7214V43.8467C76.8873 44.384 76.4517 44.8196 75.9144 44.8196H72.2552C71.7197 44.8196 71.2857 44.3856 71.2857 43.8501V43.7466C71.2857 43.3461 71.5677 43.0009 71.9601 42.9209C72.3526 42.8409 72.6346 42.4957 72.6346 42.0951V41.1511L72.703 35.2926C72.7032 35.2773 72.6921 35.2641 72.677 35.2616C72.6624 35.2592 72.648 35.2675 72.6428 35.2814L69.3538 44.1667C69.2085 44.5591 68.8343 44.8196 68.416 44.8196H67.4306C67.0154 44.8196 66.6434 44.563 66.4959 44.1748L63.1598 35.3958C63.1539 35.3802 63.1379 35.3708 63.1214 35.3731C63.1033 35.3757 63.0901 35.3916 63.0908 35.4098L63.2957 40.7387V42.0446C63.2957 42.4732 63.6006 42.8412 64.0217 42.9209C64.4428 43.0006 64.7477 43.3686 64.7477 43.7972V43.8563C64.7477 44.3883 64.3164 44.8196 63.7844 44.8196H60.111Z" fill="white"/>
<path d="M78.3075 44.8196C77.7699 44.8196 77.334 44.3837 77.334 43.8461V43.7172C77.334 43.333 77.6026 43.0011 77.9784 42.9209C78.3542 42.8407 78.6227 42.5088 78.6227 42.1246V35.0141C78.6227 34.6299 78.3542 34.298 77.9784 34.2178C77.6026 34.1377 77.334 33.8057 77.334 33.4215V33.2888C77.334 32.7485 77.772 32.3105 78.3123 32.3105H78.6227H82.5381C82.9575 32.3105 83.3324 32.5723 83.4769 32.966L86.2516 40.5256C86.257 40.5401 86.2707 40.5497 86.2861 40.5497C86.3017 40.5497 86.3155 40.5399 86.3207 40.5253L89.0134 32.9746C89.1555 32.5764 89.5326 32.3105 89.9553 32.3105H94.1062C94.6461 32.3105 95.0838 32.7483 95.0838 33.2882V33.4173C95.0838 33.8039 94.8133 34.1377 94.4352 34.2178C94.057 34.298 93.7865 34.6318 93.7865 35.0183V42.1204C93.7865 42.5069 94.057 42.8408 94.4352 42.9209C94.8133 43.001 95.0838 43.3349 95.0838 43.7214V43.8467C95.0838 44.384 94.6482 44.8196 94.1109 44.8196H90.4517C89.9163 44.8196 89.4822 44.3856 89.4822 43.8501V43.7466C89.4822 43.3461 89.7642 43.0009 90.1567 42.9209C90.5491 42.8409 90.8311 42.4957 90.8311 42.0951V41.1511L90.8995 35.2926C90.8997 35.2773 90.8887 35.2641 90.8736 35.2616C90.8589 35.2592 90.8445 35.2675 90.8394 35.2814L87.5503 44.1667C87.405 44.5591 87.0309 44.8196 86.6125 44.8196H85.6272C85.2119 44.8196 84.8399 44.563 84.6924 44.1748L81.3564 35.3958C81.3504 35.3802 81.3345 35.3708 81.3179 35.3731C81.2998 35.3757 81.2866 35.3916 81.2873 35.4098L81.4923 40.7387V42.0446C81.4923 42.4732 81.7971 42.8412 82.2182 42.9209C82.6394 43.0006 82.9442 43.3686 82.9442 43.7972V43.8563C82.9442 44.3883 82.5129 44.8196 81.981 44.8196H78.3075Z" fill="white"/>
<path d="M96.5722 44.8196C96.0349 44.8196 95.5993 44.384 95.5993 43.8467V43.7214C95.5993 43.3349 95.8698 43.001 96.2479 42.9209C96.6261 42.8408 96.8966 42.5069 96.8966 42.1204V35.0183C96.8966 34.6318 96.6261 34.298 96.2479 34.2178C95.8698 34.1377 95.5993 33.8039 95.5993 33.4173V33.2882C95.5993 32.7483 96.037 32.3105 96.577 32.3105H104.591C105.143 32.3105 105.591 32.7583 105.591 33.3105V34.9189C105.591 35.4712 105.143 35.9189 104.591 35.9189H103.96C103.598 35.9189 103.299 35.6359 103.28 35.2746C103.261 34.9133 102.962 34.6302 102.6 34.6302H100.912C100.36 34.6302 99.9122 35.0779 99.9122 35.6302V36.199C99.9122 36.7513 100.36 37.199 100.912 37.199H102.907C103.459 37.199 103.907 37.6468 103.907 38.199V38.5101C103.907 39.0624 103.459 39.5101 102.907 39.5101H100.912C100.36 39.5101 99.9122 39.9578 99.9122 40.5101V41.4913C99.9122 42.0436 100.36 42.4913 100.912 42.4913H102.734C103.112 42.4913 103.424 42.1948 103.443 41.8169C103.462 41.439 103.774 41.1425 104.153 41.1425H104.729C105.281 41.1425 105.729 41.5902 105.729 42.1425V43.8196C105.729 44.3719 105.281 44.8196 104.729 44.8196H96.5722Z" fill="white"/>
<path d="M107.827 44.8196C107.29 44.8196 106.854 44.384 106.854 43.8467V43.7214C106.854 43.3349 107.124 43.001 107.503 42.9209C107.881 42.8408 108.151 42.5069 108.151 42.1204V35.0183C108.151 34.6318 107.881 34.298 107.503 34.2178C107.124 34.1377 106.854 33.8039 106.854 33.4173V33.2843C106.854 32.7418 107.294 32.302 107.836 32.302H113.005C113.996 32.302 114.855 32.4595 115.583 32.7745C116.31 33.0895 116.872 33.5391 117.267 34.1233C117.662 34.7018 117.86 35.3891 117.86 36.1853C117.86 36.9184 117.659 37.6 117.258 38.23C116.863 38.86 116.319 39.3669 115.626 39.7507C114.933 40.1287 114.142 40.3148 113.255 40.3091L112.179 40.2958C111.622 40.289 111.167 40.7387 111.167 41.2958V42.1204C111.167 42.5069 111.437 42.8408 111.816 42.9209C112.194 43.001 112.464 43.3349 112.464 43.7214V43.8467C112.464 44.384 112.029 44.8196 111.491 44.8196H107.827ZM115.488 44.8196C115.061 44.8196 114.682 44.549 114.543 44.1458L113.419 40.8885C113.238 40.365 113.517 39.7945 114.041 39.6158L114.82 39.3503C115.321 39.1795 115.868 39.4285 116.068 39.9184L117.05 42.3209C117.165 42.601 117.405 42.8101 117.699 42.8845C118.122 42.9918 118.418 43.3726 118.418 43.809V43.8339C118.418 44.3783 117.977 44.8196 117.432 44.8196H115.488ZM111.167 36.9723C111.167 37.5245 111.615 37.9723 112.167 37.9723H113.04C113.624 37.9723 114.074 37.8377 114.389 37.5685C114.704 37.2935 114.861 36.8983 114.861 36.3829C114.861 35.8502 114.701 35.4235 114.38 35.1027C114.059 34.7763 113.601 34.613 113.005 34.613H112.167C111.615 34.613 111.167 35.0607 111.167 35.613V36.9723Z" fill="white"/>
<path d="M125.214 45C124.022 45 122.96 44.7594 122.026 44.2783C121.093 43.7972 120.36 43.1013 119.827 42.1906C119.294 41.2742 119.028 40.1631 119.028 38.8572V38.2816C119.028 37.0788 119.271 36.0163 119.758 35.0942C120.251 34.1663 120.95 33.4417 121.855 32.9205C122.765 32.3936 123.845 32.1301 125.093 32.1301C125.964 32.1301 126.792 32.2475 127.576 32.4824C128.224 32.6702 128.834 32.9696 129.405 33.3806C129.646 33.5544 129.776 33.84 129.776 34.1374V35.8897C129.776 36.442 129.328 36.8897 128.776 36.8897H128.435C127.945 36.8897 127.527 36.5343 127.448 36.0504L127.354 35.4685C127.309 35.1967 127.158 34.9495 126.915 34.8205C126.833 34.7773 126.75 34.7368 126.666 34.6989C126.454 34.6016 126.225 34.5271 125.978 34.4756C125.738 34.424 125.477 34.3982 125.197 34.3982C124.561 34.3982 124.005 34.55 123.53 34.8536C123.054 35.1572 122.685 35.5982 122.422 36.1767C122.164 36.7494 122.035 37.4453 122.035 38.2644V38.8572C122.035 39.6247 122.17 40.3005 122.439 40.8847C122.708 41.4632 123.083 41.9157 123.564 42.2422C124.051 42.5686 124.612 42.7319 125.248 42.7319C125.586 42.7319 125.93 42.6975 126.279 42.6288C126.436 42.5954 126.59 42.5574 126.742 42.5148C127.087 42.4182 127.33 42.119 127.39 41.766L127.452 41.3994C127.534 40.9186 127.95 40.5669 128.438 40.5669H128.793C129.345 40.5669 129.793 41.0146 129.793 41.5669V43.1948C129.793 43.5236 129.634 43.836 129.347 43.996C128.931 44.2271 128.444 44.4357 127.886 44.622C127.112 44.874 126.222 45 125.214 45Z" fill="white"/>
<path d="M131.556 44.8196C131.019 44.8196 130.583 44.384 130.583 43.8467V43.7214C130.583 43.3349 130.854 43.001 131.232 42.9209C131.61 42.8408 131.881 42.5069 131.881 42.1204V35.0183C131.881 34.6318 131.61 34.298 131.232 34.2178C130.854 34.1377 130.583 33.8039 130.583 33.4173V33.2882C130.583 32.7483 131.021 32.3105 131.561 32.3105H139.575C140.127 32.3105 140.575 32.7583 140.575 33.3105V34.9189C140.575 35.4712 140.127 35.9189 139.575 35.9189H138.944C138.582 35.9189 138.283 35.6359 138.264 35.2746C138.245 34.9133 137.946 34.6302 137.584 34.6302H135.896C135.344 34.6302 134.896 35.0779 134.896 35.6302V36.199C134.896 36.7513 135.344 37.199 135.896 37.199H137.891C138.444 37.199 138.891 37.6468 138.891 38.199V38.5101C138.891 39.0624 138.444 39.5101 137.891 39.5101H135.896C135.344 39.5101 134.896 39.9578 134.896 40.5101V41.4913C134.896 42.0436 135.344 42.4913 135.896 42.4913H137.718C138.096 42.4913 138.408 42.1948 138.427 41.8169C138.447 41.439 138.759 41.1425 139.137 41.1425H139.713C140.265 41.1425 140.713 41.5902 140.713 42.1425V43.8196C140.713 44.3719 140.265 44.8196 139.713 44.8196H131.556Z" fill="white"/>
<path d="M24.4734 44.8196C23.9361 44.8196 23.5005 44.384 23.5005 43.8467V43.7214C23.5005 43.3349 23.771 43.001 24.1491 42.9209C24.5273 42.8408 24.7978 42.5069 24.7978 42.1204V35.0183C24.7978 34.6318 24.5273 34.298 24.1491 34.2178C23.771 34.1377 23.5005 33.8039 23.5005 33.4173V33.2882C23.5005 32.7483 23.9382 32.3105 24.4781 32.3105H32.4923C33.0445 32.3105 33.4923 32.7583 33.4923 33.3105V34.9189C33.4923 35.4712 33.0445 35.9189 32.4923 35.9189H31.8608C31.499 35.9189 31.2004 35.6359 31.1812 35.2746C31.1619 34.9133 30.8633 34.6302 30.5015 34.6302H28.8134C28.2611 34.6302 27.8134 35.0779 27.8134 35.6302V36.199C27.8134 36.7513 28.2611 37.199 28.8134 37.199H30.8083C31.3606 37.199 31.8083 37.6468 31.8083 38.199V38.5101C31.8083 39.0624 31.3606 39.5101 30.8083 39.5101H28.8134C28.2611 39.5101 27.8134 39.9578 27.8134 40.5101V41.4913C27.8134 42.0436 28.2611 42.4913 28.8134 42.4913H30.6347C31.0131 42.4913 31.3252 42.1948 31.3444 41.8169C31.3637 41.439 31.6757 41.1425 32.0541 41.1425H32.6297C33.182 41.1425 33.6297 41.5902 33.6297 42.1425V43.8196C33.6297 44.3719 33.182 44.8196 32.6297 44.8196H24.4734Z" stroke="#003AAA" stroke-width="6" mask="url(#path-2-outside-2_204_31616)"/>
<path d="M40.898 45C39.7067 45 38.6442 44.7594 37.7106 44.2783C36.777 43.7972 36.0439 43.1013 35.5112 42.1906C34.9786 41.2742 34.7122 40.1631 34.7122 38.8572V38.2816C34.7122 37.0788 34.9557 36.0163 35.4425 35.0942C35.9351 34.1663 36.6338 33.4417 37.5388 32.9205C38.4495 32.3936 39.5291 32.1301 40.7777 32.1301C41.6483 32.1301 42.476 32.2475 43.2606 32.4824C43.9086 32.6702 44.518 32.9696 45.089 33.3806C45.3303 33.5544 45.46 33.84 45.46 34.1374V35.8897C45.46 36.442 45.0123 36.8897 44.46 36.8897H44.1196C43.6293 36.8897 43.2114 36.5343 43.1326 36.0504L43.0379 35.4685C42.9936 35.1967 42.8422 34.9495 42.5989 34.8205C42.5177 34.7773 42.4347 34.7368 42.35 34.6989C42.138 34.6016 41.9089 34.5271 41.6627 34.4756C41.4221 34.424 41.1615 34.3982 40.8808 34.3982C40.2451 34.3982 39.6895 34.55 39.2141 34.8536C38.7387 35.1572 38.3693 35.5982 38.1058 36.1767C37.8481 36.7494 37.7192 37.4453 37.7192 38.2644V38.8572C37.7192 39.6247 37.8538 40.3005 38.123 40.8847C38.3922 41.4632 38.7674 41.9157 39.2485 42.2422C39.7353 42.5686 40.2966 42.7319 40.9324 42.7319C41.2703 42.7319 41.614 42.6975 41.9634 42.6288C42.12 42.5954 42.2744 42.5574 42.4265 42.5148C42.7713 42.4182 43.0141 42.119 43.0741 41.766L43.1364 41.3994C43.2181 40.9186 43.6346 40.5669 44.1223 40.5669H44.4772C45.0295 40.5669 45.4772 41.0146 45.4772 41.5669V43.1948C45.4772 43.5236 45.3181 43.836 45.0308 43.996C44.6156 44.2271 44.1287 44.4357 43.5699 44.622C42.7967 44.874 41.9061 45 40.898 45Z" stroke="#003AAA" stroke-width="6" mask="url(#path-2-outside-2_204_31616)"/>
<path d="M52.3933 45C51.5284 45 50.7323 44.8425 50.0049 44.5275C49.2832 44.2067 48.656 43.76 48.1234 43.1872C47.5907 42.6145 47.1783 41.9443 46.8862 41.1768C46.5998 40.4036 46.4566 39.5645 46.4566 38.6596V38.462C46.4566 37.5627 46.5998 36.7294 46.8862 35.9619C47.1783 35.1944 47.5878 34.5243 48.1148 33.9515C48.6474 33.3787 49.2746 32.932 49.9963 32.6112C50.718 32.2905 51.5112 32.1301 52.3761 32.1301C53.2238 32.1301 54.0113 32.2905 54.7387 32.6112C55.4661 32.932 56.1019 33.3787 56.646 33.9515C57.1959 34.5243 57.6226 35.1944 57.9261 35.9619C58.2297 36.7294 58.3815 37.5627 58.3815 38.462V38.6596C58.3815 39.5645 58.2297 40.4036 57.9261 41.1768C57.6226 41.9443 57.1987 42.6145 56.6546 43.1872C56.1105 43.76 55.4747 44.2067 54.7473 44.5275C54.0199 44.8425 53.2352 45 52.3933 45ZM52.3933 42.7147C53.0233 42.7147 53.5617 42.5457 54.0085 42.2078C54.4552 41.8699 54.796 41.3974 55.0308 40.7902C55.2657 40.1831 55.3831 39.4729 55.3831 38.6596V38.4448C55.3831 37.6487 55.2628 36.9499 55.0222 36.3485C54.7874 35.7414 54.4466 35.2688 53.9999 34.9309C53.5531 34.593 53.0119 34.424 52.3761 34.424C51.706 34.424 51.1561 34.5901 50.7266 34.9223C50.3027 35.2545 49.9877 35.7213 49.7815 36.3227C49.5753 36.9241 49.4722 37.6315 49.4722 38.4448V38.6596C49.4722 39.4729 49.5753 40.186 49.7815 40.7988C49.9934 41.4059 50.3142 41.8785 50.7437 42.2164C51.179 42.5486 51.7289 42.7147 52.3933 42.7147Z" stroke="#003AAA" stroke-width="6" mask="url(#path-2-outside-2_204_31616)"/>
<path d="M60.111 44.8196C59.5734 44.8196 59.1375 44.3837 59.1375 43.8461V43.7172C59.1375 43.333 59.4061 43.0011 59.7819 42.9209C60.1576 42.8407 60.4262 42.5088 60.4262 42.1246V35.0141C60.4262 34.6299 60.1576 34.298 59.7819 34.2178C59.4061 34.1377 59.1375 33.8057 59.1375 33.4215V33.2888C59.1375 32.7485 59.5755 32.3105 60.1158 32.3105H60.4262H64.3416C64.761 32.3105 65.1358 32.5723 65.2804 32.966L68.0551 40.5256C68.0604 40.5401 68.0742 40.5497 68.0896 40.5497C68.1051 40.5497 68.119 40.5399 68.1242 40.5253L70.8169 32.9746C70.9589 32.5764 71.336 32.3105 71.7588 32.3105H75.9096C76.4496 32.3105 76.8873 32.7483 76.8873 33.2882V33.4173C76.8873 33.8039 76.6168 34.1377 76.2386 34.2178C75.8605 34.298 75.59 34.6318 75.59 35.0183V42.1204C75.59 42.5069 75.8605 42.8408 76.2386 42.9209C76.6168 43.001 76.8873 43.3349 76.8873 43.7214V43.8467C76.8873 44.384 76.4517 44.8196 75.9144 44.8196H72.2552C71.7197 44.8196 71.2857 44.3856 71.2857 43.8501V43.7466C71.2857 43.3461 71.5677 43.0009 71.9601 42.9209C72.3526 42.8409 72.6346 42.4957 72.6346 42.0951V41.1511L72.703 35.2926C72.7032 35.2773 72.6921 35.2641 72.677 35.2616C72.6624 35.2592 72.648 35.2675 72.6428 35.2814L69.3538 44.1667C69.2085 44.5591 68.8343 44.8196 68.416 44.8196H67.4306C67.0154 44.8196 66.6434 44.563 66.4959 44.1748L63.1598 35.3958C63.1539 35.3802 63.1379 35.3708 63.1214 35.3731C63.1033 35.3757 63.0901 35.3916 63.0908 35.4098L63.2957 40.7387V42.0446C63.2957 42.4732 63.6006 42.8412 64.0217 42.9209C64.4428 43.0006 64.7477 43.3686 64.7477 43.7972V43.8563C64.7477 44.3883 64.3164 44.8196 63.7844 44.8196H60.111Z" stroke="#003AAA" stroke-width="6" mask="url(#path-2-outside-2_204_31616)"/>
<path d="M78.3075 44.8196C77.7699 44.8196 77.334 44.3837 77.334 43.8461V43.7172C77.334 43.333 77.6026 43.0011 77.9784 42.9209C78.3542 42.8407 78.6227 42.5088 78.6227 42.1246V35.0141C78.6227 34.6299 78.3542 34.298 77.9784 34.2178C77.6026 34.1377 77.334 33.8057 77.334 33.4215V33.2888C77.334 32.7485 77.772 32.3105 78.3123 32.3105H78.6227H82.5381C82.9575 32.3105 83.3324 32.5723 83.4769 32.966L86.2516 40.5256C86.257 40.5401 86.2707 40.5497 86.2861 40.5497C86.3017 40.5497 86.3155 40.5399 86.3207 40.5253L89.0134 32.9746C89.1555 32.5764 89.5326 32.3105 89.9553 32.3105H94.1062C94.6461 32.3105 95.0838 32.7483 95.0838 33.2882V33.4173C95.0838 33.8039 94.8133 34.1377 94.4352 34.2178C94.057 34.298 93.7865 34.6318 93.7865 35.0183V42.1204C93.7865 42.5069 94.057 42.8408 94.4352 42.9209C94.8133 43.001 95.0838 43.3349 95.0838 43.7214V43.8467C95.0838 44.384 94.6482 44.8196 94.1109 44.8196H90.4517C89.9163 44.8196 89.4822 44.3856 89.4822 43.8501V43.7466C89.4822 43.3461 89.7642 43.0009 90.1567 42.9209C90.5491 42.8409 90.8311 42.4957 90.8311 42.0951V41.1511L90.8995 35.2926C90.8997 35.2773 90.8887 35.2641 90.8736 35.2616C90.8589 35.2592 90.8445 35.2675 90.8394 35.2814L87.5503 44.1667C87.405 44.5591 87.0309 44.8196 86.6125 44.8196H85.6272C85.2119 44.8196 84.8399 44.563 84.6924 44.1748L81.3564 35.3958C81.3504 35.3802 81.3345 35.3708 81.3179 35.3731C81.2998 35.3757 81.2866 35.3916 81.2873 35.4098L81.4923 40.7387V42.0446C81.4923 42.4732 81.7971 42.8412 82.2182 42.9209C82.6394 43.0006 82.9442 43.3686 82.9442 43.7972V43.8563C82.9442 44.3883 82.5129 44.8196 81.981 44.8196H78.3075Z" stroke="#003AAA" stroke-width="6" mask="url(#path-2-outside-2_204_31616)"/>
<path d="M96.5722 44.8196C96.0349 44.8196 95.5993 44.384 95.5993 43.8467V43.7214C95.5993 43.3349 95.8698 43.001 96.2479 42.9209C96.6261 42.8408 96.8966 42.5069 96.8966 42.1204V35.0183C96.8966 34.6318 96.6261 34.298 96.2479 34.2178C95.8698 34.1377 95.5993 33.8039 95.5993 33.4173V33.2882C95.5993 32.7483 96.037 32.3105 96.577 32.3105H104.591C105.143 32.3105 105.591 32.7583 105.591 33.3105V34.9189C105.591 35.4712 105.143 35.9189 104.591 35.9189H103.96C103.598 35.9189 103.299 35.6359 103.28 35.2746C103.261 34.9133 102.962 34.6302 102.6 34.6302H100.912C100.36 34.6302 99.9122 35.0779 99.9122 35.6302V36.199C99.9122 36.7513 100.36 37.199 100.912 37.199H102.907C103.459 37.199 103.907 37.6468 103.907 38.199V38.5101C103.907 39.0624 103.459 39.5101 102.907 39.5101H100.912C100.36 39.5101 99.9122 39.9578 99.9122 40.5101V41.4913C99.9122 42.0436 100.36 42.4913 100.912 42.4913H102.734C103.112 42.4913 103.424 42.1948 103.443 41.8169C103.462 41.439 103.774 41.1425 104.153 41.1425H104.729C105.281 41.1425 105.729 41.5902 105.729 42.1425V43.8196C105.729 44.3719 105.281 44.8196 104.729 44.8196H96.5722Z" stroke="#003AAA" stroke-width="6" mask="url(#path-2-outside-2_204_31616)"/>
<path d="M107.827 44.8196C107.29 44.8196 106.854 44.384 106.854 43.8467V43.7214C106.854 43.3349 107.124 43.001 107.503 42.9209C107.881 42.8408 108.151 42.5069 108.151 42.1204V35.0183C108.151 34.6318 107.881 34.298 107.503 34.2178C107.124 34.1377 106.854 33.8039 106.854 33.4173V33.2843C106.854 32.7418 107.294 32.302 107.836 32.302H113.005C113.996 32.302 114.855 32.4595 115.583 32.7745C116.31 33.0895 116.872 33.5391 117.267 34.1233C117.662 34.7018 117.86 35.3891 117.86 36.1853C117.86 36.9184 117.659 37.6 117.258 38.23C116.863 38.86 116.319 39.3669 115.626 39.7507C114.933 40.1287 114.142 40.3148 113.255 40.3091L112.179 40.2958C111.622 40.289 111.167 40.7387 111.167 41.2958V42.1204C111.167 42.5069 111.437 42.8408 111.816 42.9209C112.194 43.001 112.464 43.3349 112.464 43.7214V43.8467C112.464 44.384 112.029 44.8196 111.491 44.8196H107.827ZM115.488 44.8196C115.061 44.8196 114.682 44.549 114.543 44.1458L113.419 40.8885C113.238 40.365 113.517 39.7945 114.041 39.6158L114.82 39.3503C115.321 39.1795 115.868 39.4285 116.068 39.9184L117.05 42.3209C117.165 42.601 117.405 42.8101 117.699 42.8845C118.122 42.9918 118.418 43.3726 118.418 43.809V43.8339C118.418 44.3783 117.977 44.8196 117.432 44.8196H115.488ZM111.167 36.9723C111.167 37.5245 111.615 37.9723 112.167 37.9723H113.04C113.624 37.9723 114.074 37.8377 114.389 37.5685C114.704 37.2935 114.861 36.8983 114.861 36.3829C114.861 35.8502 114.701 35.4235 114.38 35.1027C114.059 34.7763 113.601 34.613 113.005 34.613H112.167C111.615 34.613 111.167 35.0607 111.167 35.613V36.9723Z" stroke="#003AAA" stroke-width="6" mask="url(#path-2-outside-2_204_31616)"/>
<path d="M125.214 45C124.022 45 122.96 44.7594 122.026 44.2783C121.093 43.7972 120.36 43.1013 119.827 42.1906C119.294 41.2742 119.028 40.1631 119.028 38.8572V38.2816C119.028 37.0788 119.271 36.0163 119.758 35.0942C120.251 34.1663 120.95 33.4417 121.855 32.9205C122.765 32.3936 123.845 32.1301 125.093 32.1301C125.964 32.1301 126.792 32.2475 127.576 32.4824C128.224 32.6702 128.834 32.9696 129.405 33.3806C129.646 33.5544 129.776 33.84 129.776 34.1374V35.8897C129.776 36.442 129.328 36.8897 128.776 36.8897H128.435C127.945 36.8897 127.527 36.5343 127.448 36.0504L127.354 35.4685C127.309 35.1967 127.158 34.9495 126.915 34.8205C126.833 34.7773 126.75 34.7368 126.666 34.6989C126.454 34.6016 126.225 34.5271 125.978 34.4756C125.738 34.424 125.477 34.3982 125.197 34.3982C124.561 34.3982 124.005 34.55 123.53 34.8536C123.054 35.1572 122.685 35.5982 122.422 36.1767C122.164 36.7494 122.035 37.4453 122.035 38.2644V38.8572C122.035 39.6247 122.17 40.3005 122.439 40.8847C122.708 41.4632 123.083 41.9157 123.564 42.2422C124.051 42.5686 124.612 42.7319 125.248 42.7319C125.586 42.7319 125.93 42.6975 126.279 42.6288C126.436 42.5954 126.59 42.5574 126.742 42.5148C127.087 42.4182 127.33 42.119 127.39 41.766L127.452 41.3994C127.534 40.9186 127.95 40.5669 128.438 40.5669H128.793C129.345 40.5669 129.793 41.0146 129.793 41.5669V43.1948C129.793 43.5236 129.634 43.836 129.347 43.996C128.931 44.2271 128.444 44.4357 127.886 44.622C127.112 44.874 126.222 45 125.214 45Z" stroke="#003AAA" stroke-width="6" mask="url(#path-2-outside-2_204_31616)"/>
<path d="M131.556 44.8196C131.019 44.8196 130.583 44.384 130.583 43.8467V43.7214C130.583 43.3349 130.854 43.001 131.232 42.9209C131.61 42.8408 131.881 42.5069 131.881 42.1204V35.0183C131.881 34.6318 131.61 34.298 131.232 34.2178C130.854 34.1377 130.583 33.8039 130.583 33.4173V33.2882C130.583 32.7483 131.021 32.3105 131.561 32.3105H139.575C140.127 32.3105 140.575 32.7583 140.575 33.3105V34.9189C140.575 35.4712 140.127 35.9189 139.575 35.9189H138.944C138.582 35.9189 138.283 35.6359 138.264 35.2746C138.245 34.9133 137.946 34.6302 137.584 34.6302H135.896C135.344 34.6302 134.896 35.0779 134.896 35.6302V36.199C134.896 36.7513 135.344 37.199 135.896 37.199H137.891C138.444 37.199 138.891 37.6468 138.891 38.199V38.5101C138.891 39.0624 138.444 39.5101 137.891 39.5101H135.896C135.344 39.5101 134.896 39.9578 134.896 40.5101V41.4913C134.896 42.0436 135.344 42.4913 135.896 42.4913H137.718C138.096 42.4913 138.408 42.1948 138.427 41.8169C138.447 41.439 138.759 41.1425 139.137 41.1425H139.713C140.265 41.1425 140.713 41.5902 140.713 42.1425V43.8196C140.713 44.3719 140.265 44.8196 139.713 44.8196H131.556Z" stroke="#003AAA" stroke-width="6" mask="url(#path-2-outside-2_204_31616)"/>
</g>
</g>
</svg>
