<svg xmlns="http://www.w3.org/2000/svg" width="84" height="84" viewBox="0 0 84 84" fill="none">
  <g clip-path="url(#clip0_355_9434)">
    <path d="M42 0C65.1958 0 84 18.8042 84 42C84 65.1965 65.1958 84 42 84C18.8042 84 0 65.1971 0 42C0 18.8048 18.8042 0 42 0Z" fill="#19191C"/>
    <path d="M34.0842 67.5938H49.8848V68.2448H34.0842V67.5938Z" fill="#E06F6F"/>
    <path d="M67.4014 21.0249H16.5735C15.0307 21.0249 13.7805 22.2751 13.7805 23.8179V56.9093C13.7805 58.4515 15.0307 59.7023 16.5735 59.7023H36.7217C36.4795 64.3499 36.0294 65.3572 36.0294 65.3572C36.0294 65.3572 35.2222 67.3122 34.1026 67.3122C34.1361 67.3122 34.1026 67.5917 34.1026 67.5917H49.8841C49.8841 67.5917 49.8506 67.3122 49.8841 67.3122C48.8184 67.3122 48.0387 65.3572 48.0387 65.3572C48.0387 65.3572 47.5065 64.3499 47.265 59.7023H67.03C68.5735 59.7023 70.1931 58.4515 70.1931 56.9093V23.8172C70.1944 22.2751 68.9436 21.0249 67.4014 21.0249Z" fill="#ECF0F0"/>
    <path d="M48.0396 65.3573C48.0396 65.3573 47.5073 64.35 47.2658 59.7024H36.7219C36.4797 64.35 36.0295 65.3573 36.0295 65.3573C36.0295 65.3573 35.2223 67.3123 34.1028 67.3123C34.1363 67.3123 34.1028 67.5918 34.1028 67.5918H49.8843C49.8843 67.5918 49.8508 67.3123 49.8843 67.3123C48.8192 67.3116 48.0396 65.3573 48.0396 65.3573Z" fill="url(#paint0_linear_355_9434)"/>
    <path d="M67.4217 21.0013H16.5735C15.0307 21.0013 13.7805 22.2515 13.7805 23.7943C13.7805 23.7943 13.7812 51.849 13.7805 51.8425C13.7785 51.8412 70.1826 51.8333 70.2147 51.8425V23.7943C70.2147 22.2522 68.9639 21.0013 67.4217 21.0013ZM41.9875 53.8138C40.906 53.8138 40.0285 54.6906 40.0285 55.7721C40.0285 56.8536 40.906 57.7303 41.9875 57.7303C43.069 57.7303 43.9464 56.8536 43.9464 55.7721C43.9464 54.6906 43.0696 53.8138 41.9875 53.8138Z" fill="#E74C3C"/>
    <path d="M66.9105 24.2544V48.5599C66.799 48.556 17.0598 48.5908 17.0388 48.5599V24.2544C17.0388 24.2544 66.9224 24.2669 66.9105 24.2544Z" fill="#E06F6F"/>
  </g>
  <defs>
    <linearGradient id="paint0_linear_355_9434" x1="41.9942" y1="67.5912" x2="41.9942" y2="59.7024" gradientUnits="userSpaceOnUse">
      <stop stop-color="white" stop-opacity="0"/>
      <stop offset="1" stop-opacity="0.5"/>
    </linearGradient>
    <clipPath id="clip0_355_9434">
      <rect width="84" height="84" fill="white"/>
    </clipPath>
  </defs>
</svg>