<svg xmlns="http://www.w3.org/2000/svg" width="84" height="84" viewBox="0 0 84 84" fill="none">
  <g clip-path="url(#clip0_355_9189)">
    <path d="M42.0657 83.8196C65.2616 83.8196 84.0657 65.0155 84.0657 41.8196C84.0657 18.6236 65.2616 -0.18042 42.0657 -0.18042C18.8697 -0.18042 0.0656738 18.6236 0.0656738 41.8196C0.0656738 65.0155 18.8697 83.8196 42.0657 83.8196Z" fill="#19191C"/>
    <path d="M63.8696 38.9977H42.8696V59.9649H63.8696V38.9977Z" fill="#C2B9B9"/>
    <path d="M66.5602 39.7523L53.304 23.4609H31.4016L44.6579 39.7523H66.5602Z" fill="#E45656"/>
    <path d="M63.8696 41.639H44.4282V59.9648H63.8696V41.639Z" fill="white"/>
    <path d="M31.4509 24.8718L19.4087 38.9976V59.9648H43.5095V38.9976L31.4509 24.8718Z" fill="#C2B9B9"/>
    <path d="M17.8008 39.7523H20.0813L31.4672 26.3977L42.8531 39.7523H45.3633L31.4672 23.4609L17.5547 39.7852C17.6367 39.7687 17.7188 39.7523 17.8008 39.7523Z" fill="#D52A2A"/>
    <path d="M58.0944 53.3203H52.385V60.0305H58.0944V53.3203Z" fill="#872B2B"/>
    <path d="M55.2398 50.8266C57.3873 50.8266 59.1281 49.0858 59.1281 46.9383C59.1281 44.7909 57.3873 43.05 55.2398 43.05C53.0924 43.05 51.3516 44.7909 51.3516 46.9383C51.3516 49.0858 53.0924 50.8266 55.2398 50.8266Z" fill="#DD8787"/>
    <path d="M55.6992 42.4922H54.7969V51.3844H55.6992V42.4922Z" fill="white"/>
    <path d="M59.6859 46.4789H50.7937V47.3976H59.6859V46.4789Z" fill="white"/>
    <path d="M34.568 51.7946L34.2071 51.9422C32.4352 52.6969 30.368 51.8766 29.6133 50.0883L27.3001 44.6906C26.5454 42.9188 27.3657 40.8516 29.154 40.0969L29.5149 39.9492C31.2868 39.1945 33.354 40.0149 34.1087 41.8031L35.3555 44.7235L36.8321 44.0836L35.5852 41.1633C34.486 38.5711 31.4673 37.357 28.8751 38.4727L28.5141 38.6203C25.9219 39.7195 24.7079 42.7383 25.8235 45.3305L28.1368 50.7281C29.236 53.3203 32.2548 54.5344 34.8469 53.4188L35.2079 53.2711C37.3079 52.3852 38.4891 50.2524 38.2923 48.0867L36.6844 48.7758C36.6024 50.0719 35.8313 51.2531 34.568 51.7946Z" fill="#6E5757"/>
    <path d="M38.5547 56.6015C38.5547 57.0937 38.1446 57.5038 37.6524 57.5038H26.0696C25.5774 57.5038 25.1672 57.0937 25.1672 56.6015V47.3647C25.1672 46.8726 25.5774 46.4624 26.0696 46.4624H37.6524C38.1446 46.4624 38.5547 46.8726 38.5547 47.3647V56.6015Z" fill="#491F1F"/>
    <path d="M31.861 52.9593C32.8034 52.9593 33.5673 52.1953 33.5673 51.253C33.5673 50.3107 32.8034 49.5468 31.861 49.5468C30.9187 49.5468 30.1548 50.3107 30.1548 51.253C30.1548 52.1953 30.9187 52.9593 31.861 52.9593Z" fill="#CA4646"/>
    <path d="M32.5174 52.1061H31.1885V55.5186H32.5174V52.1061Z" fill="#CA4646"/>
  </g>
  <defs>
    <clipPath id="clip0_355_9189">
      <rect width="84" height="84" fill="white"/>
    </clipPath>
  </defs>
</svg>