<svg xmlns="http://www.w3.org/2000/svg" width="84" height="84" viewBox="0 0 84 84" fill="none">
  <g clip-path="url(#clip0_261_6653)">
    <path d="M42.0657 83.9016C65.2616 83.9016 84.0657 65.0976 84.0657 41.9016C84.0657 18.7056 65.2616 -0.0983887 42.0657 -0.0983887C18.8697 -0.0983887 0.0656738 18.7056 0.0656738 41.9016C0.0656738 65.0976 18.8697 83.9016 42.0657 83.9016Z" fill="#19191C"/>
    <path d="M55.5518 44.8055V29.9906C55.5518 24.5766 51.1549 20.1797 45.7408 20.1797H37.7182C32.3041 20.1797 27.9072 24.5766 27.9072 29.9906V44.8055H55.5518Z" fill="#CA4646"/>
    <path d="M30.5322 42.1805V29.9906C30.5322 26.0367 33.7478 22.8047 37.7182 22.8047H45.7408C49.6947 22.8047 52.9268 26.0203 52.9268 29.9906V42.1805H30.5322Z" fill="#E06F6F"/>
    <path d="M30.1547 61.8516H26.2336L28.6618 54.5016H34.6008L30.1547 61.8516Z" fill="white"/>
    <path d="M53.3204 61.8516H57.2251L54.797 54.5016H48.8579L53.3204 61.8516Z" fill="white"/>
    <path d="M65.5431 34.4696C64.5751 32.9438 63.0493 31.8774 61.2774 31.4836C60.8017 31.3688 60.2931 31.3196 59.8009 31.3196C56.6345 31.3196 53.8618 33.5672 53.1727 36.6516L52.336 40.4743H31.1227L30.286 36.6516C29.597 33.5672 26.8079 31.3196 23.6579 31.3196C23.1657 31.3196 22.6735 31.3688 22.1813 31.4836C20.4095 31.8774 18.9001 32.9274 17.9157 34.4696C16.9477 35.9954 16.6196 37.8165 17.0134 39.5883L19.2282 49.6125C19.2938 50.0063 19.3759 50.4165 19.4907 50.7938L19.5727 51.1383C20.2618 54.2227 23.0345 56.4704 26.2009 56.4704C26.3485 56.4704 26.4798 56.4704 26.6274 56.454C26.8079 56.4704 26.972 56.4704 27.136 56.4704H56.2899C56.4704 56.4704 56.6345 56.4704 56.8149 56.454C56.9626 56.4704 57.1102 56.4704 57.2579 56.4704C60.4243 56.4704 63.197 54.2227 63.886 51.1383L66.4454 39.5883C66.8391 37.8165 66.511 35.9954 65.5431 34.4696Z" fill="#19191C"/>
    <path d="M41.7375 46.6921C49.4302 46.6921 55.6664 44.6722 55.6664 42.1804C55.6664 39.6887 49.4302 37.6687 41.7375 37.6687C34.0448 37.6687 27.8086 39.6887 27.8086 42.1804C27.8086 44.6722 34.0448 46.6921 41.7375 46.6921Z" fill="#19191C"/>
    <path d="M27.1524 54.2226C23.9696 54.2226 21.3938 51.6468 21.3938 48.464C21.3938 45.2811 23.9696 42.689 27.1524 42.689H56.3063C59.4891 42.689 62.0649 45.2647 62.0649 48.464C62.0649 51.6468 59.4891 54.2226 56.3063 54.2226H27.1524Z" fill="#CA4646"/>
    <path d="M30.6633 48.6773C31.2047 51.1382 29.6461 53.5827 27.1851 54.1242C24.7242 54.6656 22.2797 53.107 21.7383 50.646L19.1953 39.096C18.6539 36.6351 20.2125 34.1906 22.6734 33.6492C25.1344 33.1077 27.5789 34.6663 28.1203 37.1273L30.6633 48.6773Z" fill="#CA4646"/>
    <path d="M52.8117 48.6773C52.2703 51.1382 53.8289 53.5827 56.2899 54.1242C58.7508 54.6656 61.1953 53.107 61.7367 50.646L64.2961 39.096C64.8375 36.6351 63.2789 34.1906 60.818 33.6492C58.3571 33.1077 55.9125 34.6663 55.3711 37.1273L52.8117 48.6773Z" fill="#CA4646"/>
    <path d="M41.7377 48.6938C49.2401 48.6938 55.3221 46.7473 55.3221 44.3462C55.3221 41.945 49.2401 39.9985 41.7377 39.9985C34.2353 39.9985 28.1533 41.945 28.1533 44.3462C28.1533 46.7473 34.2353 48.6938 41.7377 48.6938Z" fill="#CA4646"/>
  </g>
  <defs>
    <clipPath id="clip0_261_6653">
      <rect width="84" height="84" fill="white"/>
    </clipPath>
  </defs>
</svg>