<svg xmlns="http://www.w3.org/2000/svg" width="84" height="84" viewBox="0 0 84 84" fill="none">
  <g clip-path="url(#clip0_598_13223)">
    <path d="M42 0C65.1965 0 84 18.8042 84 42C84 65.1965 65.1965 84 42 84C18.8042 84 0 65.1965 0 42C0 18.8042 18.8042 0 42 0Z" fill="#19191C"/>
    <path d="M64.0724 34.119L55.6968 25.7434L52.9769 28.4633C51.4126 27.2623 49.5182 26.5687 47.5482 26.4757C45.5783 26.3827 43.627 26.8948 41.9565 27.9431C41.54 28.133 41.1609 28.3957 40.8368 28.7189L32.6905 36.8653C32.6051 36.9475 32.5373 37.0461 32.4909 37.1552C32.4445 37.2642 32.4207 37.3815 32.4207 37.5C32.4207 37.6186 32.4445 37.7359 32.4909 37.8449C32.5373 37.954 32.6051 38.0526 32.6905 38.1348L33.3914 38.8357C34.1484 39.5911 35.1741 40.0153 36.2435 40.0153C37.3128 40.0153 38.3386 39.5911 39.0956 38.8357L42.3973 35.5164L44.1606 37.2796L52.5361 45.6552L55.4015 48.5205L57.6717 46.2503C58.7449 45.1784 59.541 43.8612 59.9911 42.4127C60.4411 40.9642 60.5317 39.4278 60.2549 37.9365L64.0724 34.119Z" fill="#E45656"/>
    <path d="M62.75 32.7965L55.6969 25.7434L53.5501 27.8902C53.3967 28.0442 53.1947 28.1402 52.9785 28.1619C52.7622 28.1836 52.5452 28.1297 52.3643 28.0092C50.8146 27.003 49.0089 26.462 47.1613 26.4503C45.3136 26.4386 43.5013 26.9566 41.9389 27.9431C41.5225 28.133 41.1433 28.3957 40.8192 28.7189L32.6729 36.8653C32.5876 36.9475 32.5197 37.0461 32.4733 37.1552C32.427 37.2642 32.4031 37.3815 32.4031 37.5C32.4031 37.6186 32.427 37.7359 32.4733 37.8449C32.5197 37.954 32.5876 38.0526 32.6729 38.1348L33.3738 38.8357C34.1308 39.5911 35.1565 40.0153 36.2259 40.0153C37.2953 40.0153 38.321 39.5911 39.078 38.8357L44.1606 34.1939L55.9085 45.8095C56.9817 44.7376 57.7778 43.4204 58.2278 41.9719C58.6779 40.5234 58.7685 38.987 58.4917 37.4956L62.75 32.7965Z" fill="#EA3838"/>
    <path d="M52.0028 52.2982C52.2095 52.5049 52.4548 52.6688 52.7249 52.7807C52.9949 52.8925 53.2843 52.9501 53.5765 52.9501C53.8688 52.9501 54.1582 52.8925 54.4282 52.7807C54.6983 52.6688 54.9436 52.5049 55.1503 52.2982C55.3569 52.0916 55.5209 51.8462 55.6327 51.5762C55.7446 51.3062 55.8021 51.0168 55.8021 50.7245C55.8021 50.4322 55.7446 50.1428 55.6327 49.8728C55.5209 49.6028 55.3569 49.3575 55.1503 49.1508L47.2684 41.2689L47.6872 40.3873L42.3974 35.5383L39.6202 38.3155C38.72 39.2156 37.499 39.7213 36.2259 39.7213C34.9528 39.7213 33.7319 39.2156 32.8316 38.3155L32.2585 37.7204L41.9566 28.0223C41.6215 27.6873 41.7229 27.6873 41.3174 27.5022C39.7865 26.5355 38.0147 26.0184 36.2042 26.0099C34.3937 26.0013 32.6171 26.5016 31.0771 27.4537C30.842 27.6023 30.5637 27.6675 30.287 27.6387C30.0103 27.6099 29.7514 27.4888 29.5519 27.295L27.5594 25.3025L19.1838 33.6781L23.0013 37.4955C22.7561 38.8201 22.8005 40.182 23.1315 41.4878C23.4625 42.7936 24.0723 44.0122 24.9189 45.06L24.2312 45.7477C24.0406 45.9381 23.8894 46.1641 23.7862 46.413C23.6831 46.6618 23.63 46.9286 23.63 47.198C23.63 47.4674 23.6831 47.7341 23.7862 47.983C23.8894 48.2318 24.0406 48.4579 24.2312 48.6483L24.4164 48.8334C24.6067 49.024 24.8328 49.1752 25.0817 49.2784C25.3305 49.3815 25.5973 49.4346 25.8667 49.4346C26.136 49.4346 26.4028 49.3815 26.6517 49.2784C26.9005 49.1752 27.1266 49.024 27.3169 48.8334L27.9429 48.2074L28.4543 48.7276C28.2653 48.8195 28.0926 48.9416 27.9429 49.0891L27.3169 49.7151C27.1263 49.9054 26.9751 50.1315 26.872 50.3803C26.7688 50.6292 26.7157 50.8959 26.7157 51.1653C26.7157 51.4347 26.7688 51.7015 26.872 51.9503C26.9751 52.1992 27.1263 52.4252 27.3169 52.6156L27.5021 52.8008C27.6925 52.9914 27.9185 53.1426 28.1674 53.2457C28.4162 53.3489 28.683 53.402 28.9524 53.402C29.2218 53.402 29.4885 53.3489 29.7374 53.2457C29.9862 53.1426 30.2123 52.9914 30.4027 52.8008L31.0287 52.1748C31.126 52.0782 31.2132 51.9719 31.2887 51.8574L31.6326 52.2057C31.4079 52.3043 31.2033 52.4433 31.0287 52.6156L30.4027 53.2416C30.2121 53.432 30.0609 53.658 29.9577 53.9069C29.8545 54.1557 29.8014 54.4225 29.8014 54.6919C29.8014 54.9613 29.8545 55.228 29.9577 55.4769C30.0609 55.7257 30.2121 55.9518 30.4027 56.1422L30.5878 56.3273C30.7782 56.5179 31.0043 56.6691 31.2531 56.7723C31.502 56.8755 31.7687 56.9286 32.0381 56.9286C32.3075 56.9286 32.5743 56.8755 32.8231 56.7723C33.072 56.6691 33.298 56.5179 33.4884 56.3273L34.1144 55.7014C34.2867 55.5268 34.4257 55.3221 34.5243 55.0974L34.8726 55.4413C34.7581 55.5168 34.6518 55.604 34.5552 55.7014L33.9292 56.3273C33.7386 56.5177 33.5874 56.7438 33.4843 56.9926C33.3811 57.2415 33.328 57.5082 33.328 57.7776C33.328 58.047 33.3811 58.3138 33.4843 58.5626C33.5874 58.8115 33.7386 59.0375 33.9292 59.2279L34.1144 59.4131C34.3048 59.6037 34.5308 59.7549 34.7797 59.858C35.0285 59.9612 35.2953 60.0143 35.5647 60.0143C35.8341 60.0143 36.1008 59.9612 36.3497 59.858C36.5985 59.7549 36.8246 59.6037 37.015 59.4131L37.6409 58.7871C37.7383 58.6905 37.8255 58.5842 37.901 58.4697L38.3418 58.9105C38.4843 59.0485 38.6444 59.1671 38.8179 59.2632L38.8752 59.3205C39.3448 59.5972 39.9003 59.6902 40.4343 59.5813C40.9684 59.4725 41.4432 59.1697 41.7671 58.7313C42.091 58.2929 42.2409 57.75 42.188 57.2076C42.135 56.6651 41.883 56.1615 41.4805 55.7939L40.8236 55.1371L41.0661 54.6214L44.0637 57.6189C44.481 58.0363 45.0471 58.2708 45.6374 58.2708C46.2277 58.2708 46.7937 58.0363 47.2111 57.6189C47.6285 57.2016 47.863 56.6355 47.863 56.0452C47.863 55.4549 47.6285 54.8889 47.2111 54.4715L43.063 50.3234L43.1644 50.1074L49.7767 56.7196C50.1941 57.137 50.7601 57.3715 51.3504 57.3715C51.9407 57.3715 52.5068 57.137 52.9241 56.7196C53.3415 56.3023 53.576 55.7362 53.576 55.1459C53.576 54.5557 53.3415 53.9896 52.9241 53.5722L45.1481 45.7962L45.2451 45.5758L52.0028 52.2982Z" fill="#EA3838"/>
    <path d="M54.8107 52.1969L53.5676 53.44L42.5471 42.4195C42.8777 42.0897 43.3255 41.9045 43.7924 41.9045C44.2593 41.9045 44.7072 42.0897 45.0378 42.4195L54.8107 52.1969Z" fill="#E45656"/>
    <path d="M52.8272 56.8254L51.584 58.0685L39.9023 46.3868C40.2329 46.057 40.6807 45.8718 41.1477 45.8718C41.6146 45.8718 42.0624 46.057 42.393 46.3868L52.8272 56.8254Z" fill="#E45656"/>
    <path d="M47.0964 57.7072L45.8533 58.9503L36.1553 49.2522C36.4858 48.9225 36.9337 48.7373 37.4006 48.7373C37.8675 48.7373 38.3154 48.9225 38.6459 49.2522L47.0964 57.7072Z" fill="#E45656"/>
    <path d="M38.6899 54.2908C38.3912 53.9914 38.0272 53.7652 37.6265 53.6298C37.2258 53.4944 36.7992 53.4536 36.3801 53.5106C36.4432 53.0416 36.3841 52.5643 36.2085 52.1249C36.0328 51.6855 35.7467 51.2989 35.3777 51.0027C35.0087 50.7064 34.5694 50.5106 34.1025 50.434C33.6355 50.3575 33.1567 50.4029 32.7124 50.5659C32.8787 50.1138 32.923 49.6258 32.8411 49.1511C32.7591 48.6765 32.5538 48.2317 32.2456 47.8614C31.9374 47.4912 31.5373 47.2085 31.0854 47.0418C30.6334 46.875 30.1456 46.8301 29.6708 46.9115C29.8523 46.3246 29.8322 45.6938 29.6136 45.1197C29.3949 44.5456 28.9904 44.0612 28.4645 43.7437C27.9386 43.4262 27.3215 43.2939 26.7116 43.3679C26.1018 43.4419 25.5343 43.7179 25.0995 44.152L24.0327 45.2143C24.2355 45.1663 24.4419 45.1353 24.6499 45.1218C25.1234 44.8102 25.6815 44.6526 26.248 44.6704C26.8145 44.6882 27.3617 44.8805 27.8147 45.2211C28.2678 45.5618 28.6045 46.034 28.7789 46.5733C28.9533 47.1126 28.9569 47.6926 28.7892 48.2339C29.2639 48.1526 29.7518 48.1975 30.2037 48.3642C30.6557 48.531 31.0558 48.8136 31.364 49.1839C31.6721 49.5541 31.8775 49.9989 31.9594 50.4736C32.0414 50.9483 31.997 51.4362 31.8308 51.8883C32.275 51.7254 32.7539 51.68 33.2208 51.7565C33.6878 51.833 34.1271 52.0289 34.496 52.3251C34.865 52.6214 35.1512 53.0079 35.3268 53.4473C35.5024 53.8867 35.5616 54.3641 35.4984 54.833C35.9573 54.7712 36.4243 54.8263 36.8561 54.9933C37.2879 55.1604 37.6704 55.4338 37.9682 55.7883C38.266 56.1429 38.4693 56.5669 38.5593 57.0211C38.6492 57.4752 38.6229 57.9448 38.4828 58.386L38.6899 58.1788C39.2041 57.6625 39.4928 56.9635 39.4928 56.2348C39.4928 55.5061 39.2041 54.8072 38.6899 54.2908Z" fill="#E45656"/>
    <path d="M39.8362 38.937C39.3608 39.413 38.7963 39.7906 38.175 40.0482C37.5536 40.3058 36.8875 40.4384 36.2148 40.4384C35.5422 40.4384 34.8761 40.3058 34.2547 40.0482C33.6333 39.7906 33.0688 39.413 32.5935 38.937L34.3568 40.7003C34.8321 41.1763 35.3966 41.5539 36.018 41.8115C36.6394 42.0691 37.3054 42.2017 37.9781 42.2017C38.6508 42.2017 39.3169 42.0691 39.9382 41.8115C40.5596 41.5539 41.1241 41.1763 41.5994 40.7003L45.4831 36.8387L43.7198 35.0754L39.8362 38.937Z" fill="#E45656"/>
    <path d="M58.1702 21.1935L54.7415 24.6223L65.0371 34.918L68.4659 31.4892L58.1702 21.1935Z" fill="white"/>
    <path d="M67.1461 30.1667L63.7173 33.5955L65.0389 34.9171L68.4677 31.4883L67.1461 30.1667Z" fill="white"/>
    <path d="M15.0968 31.5153L18.0549 34.4734L28.3506 24.1777L25.3925 21.2197L15.0968 31.5153Z" fill="white"/>
    <path d="M15.0973 31.5163L18.0554 34.4744L19.5984 32.9314L16.6403 29.9733L15.0973 31.5163Z" fill="white"/>
    <path d="M51.6104 58.3418C51.2099 58.3447 50.8129 58.2683 50.4422 58.117C50.0715 57.9657 49.7344 57.7424 49.4503 57.4602L47.1669 55.1767C47.1051 55.1156 47.056 55.0429 47.0225 54.9626C46.9889 54.8824 46.9717 54.7964 46.9717 54.7094C46.9717 54.6225 46.9889 54.5364 47.0225 54.4562C47.056 54.376 47.1051 54.3033 47.1669 54.2422C47.2914 54.1194 47.4593 54.0506 47.6342 54.0506C47.809 54.0506 47.9769 54.1194 48.1014 54.2422L50.3849 56.5256C50.7137 56.8434 51.1531 57.0211 51.6104 57.0211C52.0676 57.0211 52.507 56.8434 52.8358 56.5256C52.9974 56.365 53.1256 56.1741 53.213 55.9638C53.3005 55.7535 53.3456 55.5279 53.3456 55.3001C53.3456 55.0724 53.3005 54.8468 53.213 54.6365C53.1256 54.4262 52.9974 54.2352 52.8358 54.0747L51.121 52.3599C50.9965 52.236 50.9264 52.0676 50.9259 51.892C50.9255 51.7163 50.9949 51.5477 51.1188 51.4231C51.2428 51.2986 51.4111 51.2284 51.5868 51.228C51.7624 51.2276 51.9311 51.297 52.0556 51.4209L53.7704 53.1401C54.1976 53.5674 54.4885 54.1117 54.6063 54.7042C54.7242 55.2968 54.6637 55.911 54.4325 56.4692C54.2013 57.0273 53.8098 57.5044 53.3074 57.8401C52.8051 58.1758 52.2145 58.355 51.6104 58.355V58.3418Z" fill="#252D32"/>
    <path d="M53.528 53.5501C53.1275 53.5535 52.7304 53.4773 52.3596 53.3259C51.9888 53.1746 51.6517 52.9511 51.368 52.6684L42.0535 43.3583C41.9296 43.2338 41.8602 43.0652 41.8606 42.8895C41.861 42.7138 41.9312 42.5455 42.0557 42.4216C42.1802 42.2977 42.3489 42.2283 42.5245 42.2287C42.7002 42.2291 42.8685 42.2993 42.9924 42.4238L52.3025 51.7339C52.6293 52.0571 53.0711 52.2374 53.5308 52.2349C53.9904 52.2324 54.4302 52.0474 54.7535 51.7207C55.0768 51.3939 55.257 50.9521 55.2545 50.4925C55.252 50.0328 55.067 49.593 54.7403 49.2697L44.1606 38.6901C44.0379 38.5655 43.969 38.3977 43.969 38.2228C43.969 38.0479 44.0379 37.8801 44.1606 37.7555C44.2217 37.6937 44.2945 37.6446 44.3747 37.6111C44.4549 37.5776 44.541 37.5603 44.6279 37.5603C44.7148 37.5603 44.8009 37.5776 44.8811 37.6111C44.9613 37.6446 45.0341 37.6937 45.0952 37.7555L55.6748 48.3352C56.102 48.7624 56.3929 49.3067 56.5108 49.8993C56.6286 50.4918 56.5681 51.106 56.3369 51.6642C56.1057 52.2224 55.7142 52.6995 55.2119 53.0352C54.7095 53.3708 54.119 53.55 53.5148 53.5501H53.528Z" fill="#252D32"/>
    <path d="M65.4391 35.7894C65.2638 35.7893 65.0957 35.7195 64.9718 35.5955L54.1894 24.8174C54.1275 24.7563 54.0784 24.6836 54.0449 24.6034C54.0114 24.5232 53.9941 24.4371 53.9941 24.3502C53.9941 24.2632 54.0114 24.1772 54.0449 24.097C54.0784 24.0167 54.1275 23.944 54.1894 23.8829L57.4646 20.6076C57.5913 20.4889 57.7583 20.4229 57.9319 20.4229C58.1055 20.4229 58.2725 20.4889 58.3992 20.6076L69.1772 31.3856C69.239 31.4467 69.2882 31.5195 69.3217 31.5997C69.3552 31.6799 69.3724 31.766 69.3724 31.8529C69.3724 31.9398 69.3552 32.0259 69.3217 32.1061C69.2882 32.1863 69.239 32.2591 69.1772 32.3202L65.9063 35.5955C65.7819 35.7187 65.6142 35.7883 65.4391 35.7894ZM55.5912 24.3281L65.4391 34.1937L67.7754 31.8529L57.9319 22.0094L55.5912 24.3281Z" fill="#252D32"/>
    <path d="M45.8622 59.3203C45.4619 59.323 45.0649 59.2465 44.6942 59.0952C44.3235 58.9439 43.9864 58.7208 43.7022 58.4387L35.3267 50.0631C35.2617 50.0026 35.2096 49.9296 35.1735 49.8485C35.1373 49.7674 35.1179 49.6798 35.1163 49.591C35.1147 49.5023 35.1311 49.4141 35.1643 49.3317C35.1976 49.2494 35.2471 49.1746 35.3099 49.1118C35.3727 49.049 35.4475 48.9995 35.5298 48.9663C35.6121 48.933 35.7003 48.9167 35.7891 48.9183C35.8779 48.9198 35.9654 48.9392 36.0466 48.9754C36.1277 49.0115 36.2007 49.0636 36.2612 49.1286L44.6368 57.5042C44.7977 57.6651 44.9887 57.7928 45.199 57.8799C45.4093 57.9669 45.6346 58.0118 45.8622 58.0118C46.0898 58.0118 46.3152 57.9669 46.5255 57.8799C46.7357 57.7928 46.9268 57.6651 47.0877 57.5042C47.2486 57.3432 47.3763 57.1522 47.4634 56.9419C47.5505 56.7317 47.5953 56.5063 47.5953 56.2787C47.5953 56.0511 47.5505 55.8257 47.4634 55.6155C47.3763 55.4052 47.2486 55.2142 47.0877 55.0532L39.5321 47.4579C39.4702 47.3968 39.4211 47.324 39.3876 47.2438C39.3541 47.1636 39.3369 47.0776 39.3369 46.9906C39.3369 46.9037 39.3541 46.8177 39.3876 46.7374C39.4211 46.6572 39.4702 46.5844 39.5321 46.5234C39.6566 46.4006 39.8245 46.3318 39.9993 46.3318C40.1742 46.3318 40.3421 46.4006 40.4666 46.5234L48.0223 54.0834C48.4494 54.5106 48.7404 55.0549 48.8582 55.6475C48.9761 56.2401 48.9156 56.8543 48.6844 57.4125C48.4532 57.9706 48.0617 58.4477 47.5593 58.7834C47.057 59.1191 46.4664 59.2983 45.8622 59.2983V59.3203Z" fill="#252D32"/>
    <path d="M40.1138 60.2594C39.304 60.264 38.5255 59.9469 37.9494 59.3777C37.8266 59.2532 37.7578 59.0853 37.7578 58.9105C37.7578 58.7356 37.8266 58.5677 37.9494 58.4432C38.0105 58.3814 38.0832 58.3323 38.1635 58.2987C38.2437 58.2652 38.3297 58.248 38.4167 58.248C38.5036 58.248 38.5897 58.2652 38.6699 58.2987C38.7501 58.3323 38.8228 58.3814 38.8839 58.4432C39.1815 58.7366 39.5749 58.9129 39.9919 58.9398C40.409 58.9666 40.8217 58.8422 41.1544 58.5893C41.4871 58.3364 41.7175 57.972 41.8033 57.563C41.8891 57.154 41.8245 56.7278 41.6214 56.3625C41.5786 56.287 41.551 56.2037 41.5404 56.1175C41.5297 56.0314 41.5361 55.9439 41.5592 55.8602C41.5824 55.7765 41.6218 55.6982 41.6752 55.6297C41.7286 55.5612 41.7949 55.5039 41.8705 55.461C41.946 55.4182 42.0293 55.3907 42.1155 55.38C42.2016 55.3693 42.2891 55.3757 42.3728 55.3989C42.4565 55.422 42.5348 55.4614 42.6033 55.5148C42.6718 55.5682 42.7291 55.6346 42.772 55.7101C43.0351 56.1739 43.1723 56.6986 43.1699 57.2319C43.1674 57.7651 43.0254 58.2885 42.7579 58.7499C42.4904 59.2112 42.1069 59.5945 41.6453 59.8617C41.1838 60.1288 40.6603 60.2705 40.127 60.2726L40.1138 60.2594Z" fill="#252D32"/>
    <path d="M28.7849 54.2907C28.4115 54.2911 28.0417 54.2177 27.6967 54.0747C27.3517 53.9317 27.0384 53.722 26.7748 53.4576L26.5059 53.1887C25.974 52.6549 25.6753 51.9321 25.6753 51.1785C25.6753 50.425 25.974 49.7021 26.5059 49.1684L27.2685 48.4058C27.8024 47.8725 28.5262 47.573 29.2808 47.573C30.0355 47.573 30.7592 47.8725 31.2932 48.4058L31.5577 48.6747C32.0907 49.2079 32.3901 49.9309 32.3901 50.6848C32.3901 51.4387 32.0907 52.1617 31.5577 52.6949L30.795 53.4576C30.5314 53.722 30.2181 53.9317 29.8731 54.0747C29.5282 54.2177 29.1583 54.2911 28.7849 54.2907ZM29.283 48.8951C29.0835 48.8937 28.8857 48.932 28.701 49.0077C28.5164 49.0833 28.3486 49.1949 28.2074 49.3359L27.4404 50.0985C27.1562 50.3843 26.9966 50.771 26.9966 51.1741C26.9966 51.5772 27.1562 51.9639 27.4404 52.2497L27.7093 52.5186C27.9951 52.8029 28.3818 52.9625 28.7849 52.9625C29.188 52.9625 29.5747 52.8029 29.8605 52.5186L30.6231 51.756C30.7644 51.6148 30.8765 51.4471 30.953 51.2625C31.0294 51.078 31.0688 50.8802 31.0688 50.6804C31.0688 50.4806 31.0294 50.2828 30.953 50.0983C30.8765 49.9137 30.7644 49.746 30.6231 49.6048L30.3542 49.3359C30.2137 49.1952 30.0467 49.0838 29.8628 49.0082C29.6789 48.9325 29.4819 48.8941 29.283 48.8951Z" fill="#252D32"/>
    <path d="M25.9108 50.4555C25.5345 50.458 25.1614 50.3856 24.8133 50.2426C24.4651 50.0995 24.1489 49.8887 23.883 49.6224L23.6141 49.3535C23.0812 48.8203 22.7817 48.0973 22.7817 47.3433C22.7817 46.5894 23.0812 45.8664 23.6141 45.3332L24.3768 44.5662C24.9105 44.0343 25.6333 43.7356 26.3869 43.7356C27.1404 43.7356 27.8633 44.0343 28.397 44.5662L28.6659 44.8351C29.1989 45.3683 29.4983 46.0913 29.4983 46.8452C29.4983 47.5991 29.1989 48.3222 28.6659 48.8554L27.921 49.6224C27.3876 50.1552 26.6647 50.4549 25.9108 50.4555ZM26.4045 45.0643C26.205 45.0632 26.0073 45.1016 25.8227 45.1772C25.6381 45.2529 25.4703 45.3643 25.3289 45.5051L24.5663 46.2677C24.2821 46.5535 24.1225 46.9403 24.1225 47.3433C24.1225 47.7464 24.2821 48.1332 24.5663 48.4189L24.8352 48.6878C25.121 48.9721 25.5077 49.1317 25.9108 49.1317C26.3139 49.1317 26.7006 48.9721 26.9864 48.6878L27.749 47.9208C27.8903 47.7796 28.0024 47.6119 28.0789 47.4273C28.1553 47.2428 28.1947 47.045 28.1947 46.8452C28.1947 46.6455 28.1553 46.4476 28.0789 46.2631C28.0024 46.0785 27.8903 45.9109 27.749 45.7696L27.4801 45.5051C27.3392 45.3637 27.1715 45.2519 26.9868 45.1762C26.8021 45.1005 26.6041 45.0624 26.4045 45.0643Z" fill="#252D32"/>
    <path d="M32.1395 57.6453C31.766 57.6462 31.3961 57.573 31.051 57.43C30.706 57.287 30.3928 57.077 30.1294 56.8122L29.8605 56.5433C29.3275 56.0101 29.0281 55.2871 29.0281 54.5331C29.0281 53.7792 29.3275 53.0562 29.8605 52.523L30.6231 51.7604C31.1563 51.2274 31.8793 50.928 32.6332 50.928C33.3871 50.928 34.1102 51.2274 34.6434 51.7604L34.9123 52.0249C35.4455 52.5588 35.7451 53.2826 35.7451 54.0372C35.7451 54.7919 35.4455 55.5156 34.9123 56.0496L34.1497 56.8122C33.886 57.0766 33.5727 57.2864 33.2277 57.4293C32.8828 57.5723 32.5129 57.6457 32.1395 57.6453ZM32.6332 52.2673C32.2305 52.266 31.8437 52.4246 31.5576 52.7082L30.795 53.4708C30.6537 53.612 30.5417 53.7797 30.4652 53.9642C30.3887 54.1488 30.3494 54.3466 30.3494 54.5464C30.3494 54.7461 30.3887 54.944 30.4652 55.1285C30.5417 55.3131 30.6537 55.4807 30.795 55.622L31.0639 55.8909C31.3497 56.1751 31.7364 56.3347 32.1395 56.3347C32.5426 56.3347 32.9293 56.1751 33.2151 55.8909L33.9777 55.1282C34.119 54.987 34.2311 54.8193 34.3076 54.6348C34.384 54.4502 34.4234 54.2524 34.4234 54.0526C34.4234 53.8529 34.384 53.6551 34.3076 53.4705C34.2311 53.286 34.119 53.1183 33.9777 52.977L33.7088 52.7082C33.5676 52.5671 33.3999 52.4556 33.2152 52.3799C33.0306 52.3042 32.8328 52.266 32.6332 52.2673Z" fill="#252D32"/>
    <path d="M35.494 61.0001C35.1204 61.0019 34.7501 60.9292 34.405 60.7861C34.0598 60.6431 33.7467 60.4325 33.4839 60.1669L33.215 59.898C32.682 59.3648 32.3826 58.6418 32.3826 57.8879C32.3826 57.134 32.682 56.4109 33.215 55.8778L33.9776 55.1151C34.5108 54.5822 35.2338 54.2827 35.9877 54.2827C36.7416 54.2827 37.4647 54.5822 37.9979 55.1151L38.2668 55.3796C38.7998 55.9128 39.0992 56.6359 39.0992 57.3898C39.0992 58.1437 38.7998 58.8667 38.2668 59.3999L37.5041 60.1669C37.2408 60.4317 36.9275 60.6417 36.5825 60.7847C36.2375 60.9277 35.8675 61.0009 35.494 61.0001ZM35.9877 55.6044C35.7882 55.6033 35.5905 55.6417 35.4059 55.7174C35.2213 55.793 35.0535 55.9045 34.9121 56.0453L34.1495 56.8079C34.0082 56.9491 33.8961 57.1168 33.8197 57.3013C33.7432 57.4859 33.7039 57.6837 33.7039 57.8835C33.7039 58.0832 33.7432 58.281 33.8197 58.4656C33.8961 58.6502 34.0082 58.8178 34.1495 58.9591L34.4184 59.228C34.7085 59.504 35.0936 59.6579 35.494 59.6579C35.8944 59.6579 36.2795 59.504 36.5696 59.228L37.3322 58.4609C37.6165 58.1751 37.7761 57.7884 37.7761 57.3853C37.7761 56.9822 37.6165 56.5955 37.3322 56.3097L37.0633 56.0453C36.9223 55.9041 36.7545 55.7924 36.5699 55.7167C36.3852 55.641 36.1873 55.6028 35.9877 55.6044Z" fill="#252D32"/>
    <path d="M36.0099 40.5989C35.2997 40.6006 34.5961 40.4621 33.9395 40.1913C33.2828 39.9205 32.6862 39.5227 32.1836 39.0207C32.0057 38.8423 31.8647 38.6305 31.7686 38.3976C31.6725 38.1646 31.6233 37.915 31.6238 37.663C31.6227 37.4105 31.672 37.1604 31.7689 36.9272C31.8658 36.6941 32.0083 36.4826 32.188 36.3053L39.8451 28.6659C41.5553 27.0271 43.7517 25.9884 46.1035 25.7062C48.4553 25.4239 50.8351 25.9134 52.8845 27.101L54.8858 25.0997C55.0097 24.9751 55.1781 24.905 55.3537 24.9045C55.5294 24.9041 55.698 24.9735 55.8226 25.0975C55.9471 25.2214 56.0173 25.3897 56.0177 25.5654C56.0181 25.741 55.9487 25.9097 55.8248 26.0342L53.4532 28.4058C53.3457 28.5126 53.205 28.5796 53.0543 28.5956C52.9036 28.6117 52.752 28.5758 52.6244 28.494C50.8104 27.3185 48.6528 26.7896 46.5008 26.9928C44.3488 27.196 42.3283 28.1194 40.7664 29.6136L33.1402 37.2398C33.0303 37.3533 32.9689 37.5051 32.9689 37.663C32.9689 37.821 33.0303 37.9727 33.1402 38.0862C33.9075 38.8491 34.9456 39.2773 36.0276 39.2773C37.1096 39.2773 38.1476 38.8491 38.9149 38.0862L43.2173 33.9205C43.2778 33.8524 43.3517 33.7976 43.4343 33.7594C43.517 33.7212 43.6066 33.7005 43.6976 33.6986C43.7886 33.6967 43.8791 33.7136 43.9632 33.7482C44.0474 33.7828 44.1235 33.8345 44.1868 33.8999C44.2501 33.9654 44.2992 34.0432 44.3311 34.1284C44.3629 34.2137 44.3768 34.3047 44.3719 34.3956C44.3669 34.4865 44.3433 34.5753 44.3024 34.6567C44.2615 34.738 44.2043 34.81 44.1342 34.8682L39.8186 39.0428C39.3173 39.5398 38.7228 39.9331 38.0692 40.2001C37.4157 40.4671 36.7159 40.6026 36.0099 40.5989Z" fill="#252D32"/>
    <path d="M55.7365 49.3227C55.5615 49.3211 55.3939 49.2516 55.2692 49.1287C55.1465 49.0042 55.0776 48.8363 55.0776 48.6615C55.0776 48.4866 55.1465 48.3187 55.2692 48.1942L57.1339 46.3339C58.1855 45.2854 58.9794 44.0071 59.4529 42.5995C59.9264 41.192 60.0666 39.6938 59.8625 38.2229C59.848 38.1223 59.8572 38.0197 59.8893 37.9232C59.9215 37.8268 59.9757 37.7392 60.0477 37.6674L63.7285 33.9866C63.7891 33.9216 63.8621 33.8695 63.9432 33.8334C64.0243 33.7972 64.1118 33.7778 64.2006 33.7762C64.2894 33.7747 64.3776 33.791 64.4599 33.8243C64.5423 33.8575 64.6171 33.907 64.6799 33.9698C64.7426 34.0326 64.7921 34.1074 64.8254 34.1897C64.8587 34.272 64.875 34.3602 64.8734 34.449C64.8719 34.5378 64.8524 34.6254 64.8163 34.7065C64.7801 34.7876 64.728 34.8606 64.6631 34.9211L61.2114 38.3771C61.3872 40 61.1961 41.6416 60.652 43.1806C60.108 44.7196 59.225 46.1166 58.0684 47.2685L56.2038 49.1287C56.1426 49.1903 56.0697 49.2392 55.9895 49.2725C55.9093 49.3058 55.8233 49.3228 55.7365 49.3227Z" fill="#252D32"/>
    <path d="M17.9451 35.3135C17.7698 35.3133 17.6018 35.2435 17.4779 35.1195L14.2687 31.9059C14.2069 31.8448 14.1578 31.7721 14.1243 31.6919C14.0907 31.6117 14.0735 31.5256 14.0735 31.4387C14.0735 31.3517 14.0907 31.2657 14.1243 31.1855C14.1578 31.1053 14.2069 31.0325 14.2687 30.9714L25.0467 20.1934C25.1707 20.0695 25.3388 20 25.514 20C25.6892 20 25.8573 20.0695 25.9813 20.1934L29.1904 23.4025C29.2523 23.4636 29.3014 23.5364 29.3349 23.6166C29.3684 23.6968 29.3857 23.7829 29.3857 23.8698C29.3857 23.9567 29.3684 24.0428 29.3349 24.123C29.3014 24.2032 29.2523 24.276 29.1904 24.3371L18.4124 35.1195C18.2885 35.2435 18.1204 35.3133 17.9451 35.3135ZM15.6705 31.4387L17.9451 33.7177L27.7886 23.8698L25.514 21.5952L15.6705 31.4387Z" fill="#252D32"/>
    <path d="M41.6038 28.1501C41.4754 28.1525 41.3492 28.1156 41.2424 28.0443C39.6838 27.0276 37.8642 26.4837 36.0034 26.4782C34.1425 26.4727 32.3198 27.0059 30.7553 28.0134C30.6287 28.0957 30.4776 28.1319 30.3274 28.1158C30.1773 28.0998 30.0373 28.0325 29.9309 27.9253L27.5593 25.5581C27.4944 25.4975 27.4423 25.4246 27.4061 25.3434C27.37 25.2623 27.3505 25.1748 27.349 25.086C27.3474 24.9972 27.3637 24.909 27.397 24.8267C27.4303 24.7443 27.4798 24.6696 27.5425 24.6068C27.6053 24.544 27.6801 24.4945 27.7625 24.4612C27.8448 24.428 27.933 24.4116 28.0218 24.4132C28.1105 24.4148 28.1981 24.4342 28.2792 24.4703C28.3603 24.5065 28.4333 24.5586 28.4939 24.6235L30.4952 26.6249C32.2482 25.6137 34.247 25.1076 36.27 25.1629C38.293 25.2181 40.2612 25.8325 41.9565 26.9378C42.0746 27.0162 42.1644 27.1304 42.2127 27.2636C42.2609 27.3968 42.2651 27.542 42.2246 27.6778C42.1842 27.8136 42.1011 27.9328 41.9877 28.0178C41.8744 28.1029 41.7367 28.1492 41.595 28.1501H41.6038Z" fill="#252D32"/>
    <path d="M24.5971 45.5669C24.4901 45.5672 24.3847 45.5413 24.2902 45.4913C24.1956 45.4413 24.1148 45.3689 24.0548 45.2804C22.5615 43.1248 21.8934 40.504 22.1725 37.8966L18.7165 34.4406C18.5997 34.3153 18.5361 34.1495 18.5392 33.9782C18.5422 33.8069 18.6116 33.6434 18.7327 33.5223C18.8539 33.4011 19.0173 33.3317 19.1886 33.3287C19.3599 33.3257 19.5257 33.3893 19.6511 33.5061L23.3319 37.1869C23.4038 37.2588 23.4583 37.3463 23.4912 37.4426C23.5241 37.5389 23.5344 37.6414 23.5215 37.7423C23.1936 40.1285 23.7724 42.5508 25.1437 44.531C25.212 44.6304 25.2519 44.7466 25.259 44.867C25.266 44.9875 25.24 45.1075 25.1837 45.2142C25.1274 45.3209 25.0429 45.4102 24.9395 45.4724C24.8361 45.5345 24.7177 45.5672 24.5971 45.5669Z" fill="#252D32"/>
  </g>
  <defs>
    <clipPath id="clip0_598_13223">
      <rect width="84" height="84" fill="white"/>
    </clipPath>
  </defs>
</svg>