<svg width="55" height="55" viewBox="0 0 55 55" fill="none" xmlns="http://www.w3.org/2000/svg">
<path d="M0.635742 36.7957V53.5819H7.34738V36.7957H0.635742ZM3.99585 51.4847C3.78849 51.4847 3.58579 51.4232 3.41338 51.3079C3.24096 51.1927 3.10658 51.029 3.02723 50.8373C2.94787 50.6457 2.92712 50.4349 2.96758 50.2315C3.00803 50.0281 3.10787 49.8412 3.2545 49.6946C3.40112 49.5479 3.58794 49.4481 3.79131 49.4076C3.99469 49.3671 4.20549 49.3879 4.39706 49.4673C4.58864 49.5466 4.75239 49.681 4.86759 49.8535C4.98279 50.0259 5.04427 50.2287 5.04427 50.4361C5.04203 50.7135 4.93085 50.9789 4.73472 51.175C4.53859 51.3712 4.27321 51.4824 3.99585 51.4847Z" fill="#EA3838"/>
<path d="M5.56852 21.78L3.89277 21.6682C3.83261 22.6051 3.81542 23.5677 3.84979 24.5132C3.94898 27.2997 4.46757 30.0553 5.38806 32.6871L6.96929 32.1284C6.1086 29.6565 5.6248 27.069 5.53416 24.453C5.51697 23.5763 5.51696 22.6395 5.56852 21.78Z" fill="white"/>
<path d="M4.32275 18.3417L5.97273 18.6511C6.91355 13.6514 9.30449 9.03912 12.8477 5.38889L11.6445 4.21997C7.869 8.10496 5.32226 13.0169 4.32275 18.3417Z" fill="white"/>
<path d="M16.9208 0C15.9056 0.63254 14.9325 1.3302 14.0076 2.0886L15.0732 3.38647C15.943 2.67379 16.8588 2.01915 17.8145 1.42679L16.9208 0Z" fill="white"/>
<path d="M49.4564 27.0913L54.3719 23.533L49.4564 19.966L52.636 14.809L46.7665 13.3908L47.7204 7.37423L41.7049 8.32829L40.2955 2.42345L35.1393 5.60363L31.5816 0.687256L28.0152 5.60363L22.859 2.42345L21.4496 8.32829L15.4341 7.37423L16.3966 13.3908L10.4842 14.8004L13.6638 19.9574L8.71387 23.4986L13.6294 27.057L10.4498 32.214L16.3622 33.6236L15.8122 37.0617C27.448 38.0243 20.3153 40.9209 34.8901 40.749C35.5977 40.7419 36.2894 40.9585 36.8667 41.3678C37.2473 41.6501 37.5443 42.0303 37.726 42.468C37.8108 42.6766 37.877 42.8923 37.9237 43.1126L40.2955 44.5652L41.7049 38.6604L47.7204 39.623L46.7665 33.6064L52.6704 32.1968L49.4564 27.0913ZM32.0284 37.0703C29.3521 37.1637 26.7082 36.4615 24.4308 35.0524C22.1534 33.6433 20.3448 31.5906 19.2336 29.1537C18.1223 26.7167 17.7583 24.0051 18.1876 21.3613C18.6168 18.7175 19.8201 16.2604 21.6452 14.3004C23.4704 12.3405 25.8355 10.9657 28.4417 10.3498C31.0479 9.73388 33.7781 9.90455 36.2873 10.8402C38.7966 11.7759 40.9721 13.4345 42.5391 15.6066C44.106 17.7786 44.994 20.3664 45.0908 23.0431C45.2161 26.635 43.9108 30.1299 41.4616 32.76C39.0124 35.3901 35.6196 36.9403 32.0284 37.0703Z" fill="#EA3838"/>
<path d="M31.53 37.7062H32.0542C35.8052 37.6371 39.3772 36.0894 41.9931 33.3997C44.609 30.7101 46.0571 27.0962 46.0226 23.3441C45.988 19.592 44.4736 16.0053 41.8086 13.3643C39.1436 10.7233 35.5437 9.2417 31.7921 9.2417C28.0405 9.2417 24.4406 10.7233 21.7757 13.3643C19.1107 16.0053 17.5962 19.592 17.5616 23.3441C17.5271 27.0962 18.9753 30.7101 21.5912 33.3997C24.2071 36.0894 27.779 37.6371 31.53 37.7062ZM22.077 14.7315C23.229 13.4801 24.6187 12.4707 26.165 11.7624C27.7113 11.054 29.3832 10.6609 31.0831 10.6059H31.5558C34.5173 10.6081 37.3878 11.6302 39.6845 13.5002C41.9812 15.3703 43.5641 17.9743 44.1669 20.8743C44.7697 23.7744 44.3557 26.7936 42.9945 29.4242C41.6333 32.0549 39.408 34.1365 36.6927 35.3191C33.9774 36.5016 30.9378 36.713 28.085 35.9177C25.2322 35.1223 22.7402 33.3688 21.0281 30.9519C19.316 28.5349 18.4882 25.6021 18.684 22.6465C18.8797 19.691 20.087 16.8929 22.1028 14.7229L22.077 14.7315Z" fill="#E5E5E5"/>
<path d="M41.3354 40.2077L40.9917 41.6345C42.53 41.1703 43.8534 40.6632 45.0049 40.2335C45.7096 39.967 46.3369 39.735 46.9213 39.5373L44.3432 39.1333C43.4581 39.4685 42.4698 39.8295 41.3354 40.2077Z" fill="#1A171B"/>
<path d="M54.0369 41.3082C53.7541 41.0998 53.4255 40.9622 53.0786 40.9069C52.7318 40.8516 52.3767 40.8801 52.0431 40.9902C52.0526 40.2462 51.8137 39.5202 51.3642 38.9273C51.0643 38.5663 50.6846 38.2798 50.2551 38.0904C49.8257 37.901 49.3581 37.8138 48.8893 37.8358C48.395 37.8565 47.9047 37.9344 47.4283 38.0678L47.6346 39.3227C48.0475 39.1952 48.4748 39.1201 48.9065 39.0992C49.1846 39.0746 49.4645 39.118 49.722 39.2258C49.9796 39.3337 50.207 39.5026 50.3846 39.7181C50.5558 39.955 50.6776 40.224 50.7426 40.509C50.8075 40.794 50.8144 41.0892 50.7627 41.3769C50.1869 41.5918 49.5338 41.8583 48.7775 42.1677C45.3908 43.6123 41.886 44.7626 38.3019 45.6057C38.4759 45.2658 38.5811 44.8948 38.6113 44.5142C38.6944 43.9213 38.6475 43.3174 38.4739 42.7445C38.3002 42.1716 38.004 41.6434 37.6058 41.1964C36.8696 40.5044 35.8918 40.128 34.8816 40.1478C27.0356 40.2424 25.6864 39.4602 24.1224 38.5577C22.2146 37.4576 20.0404 36.2113 7.35616 36.1511H0.635935C0.468754 36.1511 0.308287 36.2169 0.189271 36.3344C0.0702551 36.4518 0.0022592 36.6114 0 36.7786V53.582C0.0022592 53.7492 0.0702551 53.9087 0.189271 54.0262C0.308287 54.1436 0.468754 54.2094 0.635935 54.2094H7.34757C7.51475 54.2094 7.67521 54.1436 7.79422 54.0262C7.91324 53.9087 7.98123 53.7492 7.98349 53.582V52.7224C13.453 54.2332 19.1012 54.9994 24.7755 55.0001C33.4293 55.0001 43.9307 53.1264 53.0142 46.1386C53.2119 46.0097 54.922 44.815 54.9994 43.2679C55.0083 42.8879 54.9254 42.5113 54.7579 42.1702C54.5903 41.8291 54.343 41.5334 54.0369 41.3082ZM6.72023 52.9545H1.26327V37.4318H6.72023V52.9545ZM53.7447 43.2077C53.7017 43.9898 52.6705 44.8579 52.2752 45.1244C34.6152 58.7132 11.4038 52.456 7.98349 51.4246V37.4318C19.774 37.5263 21.7333 38.6609 23.4521 39.6665C25.1708 40.6721 26.6747 41.5145 34.8816 41.3855C35.5415 41.3795 36.1796 41.6219 36.6691 42.0645C36.9378 42.387 37.1344 42.7632 37.2455 43.1679C37.3567 43.5727 37.3799 43.9965 37.3136 44.411C37.2621 45.1502 36.6777 45.7346 35.5949 46.13C33.6957 46.7059 29.9231 47.1958 22.7732 46.259C22.6079 46.2373 22.4409 46.2822 22.3087 46.3837C22.1765 46.4853 22.0901 46.6352 22.0685 46.8004C22.0468 46.9657 22.0917 47.1328 22.1932 47.265C22.2948 47.3972 22.4446 47.4836 22.6099 47.5052C25.0392 47.8424 27.4877 48.0233 29.9403 48.0467C31.9689 48.1021 33.9949 47.8648 35.9558 47.3419C40.5256 46.4739 44.9865 45.1077 49.2588 43.2679C51.2955 42.4083 52.765 41.8325 53.2291 42.2193C53.6931 42.606 53.7533 43.0874 53.7447 43.2077Z" fill="#EA3838"/>
<path d="M37.0569 24.5264C37.0569 27.0321 36.6132 28.9451 35.7259 30.2654C34.8457 31.5858 33.5431 32.2459 31.8182 32.2459C30.0933 32.2459 28.7978 31.5893 27.9318 30.2761C27.0658 28.9629 26.6328 27.0463 26.6328 24.5264C26.6328 21.9496 27.0516 20.0189 27.8892 18.734C28.734 17.4492 30.0649 16.8068 31.8821 16.8068C33.6496 16.8068 34.9522 17.4563 35.7898 18.7553C36.6345 20.0544 37.0569 21.978 37.0569 24.5264ZM35.1083 24.5264C35.1083 23.0783 34.9983 21.9035 34.7783 21.002C34.5653 20.0934 34.221 19.4261 33.7454 19.0002C33.2699 18.5743 32.6487 18.3614 31.8821 18.3614C31.1013 18.3614 30.466 18.5708 29.9762 18.9896C29.4864 19.4084 29.1279 20.0721 28.9008 20.9807C28.6807 21.8822 28.5707 23.0641 28.5707 24.5264C28.5707 25.9461 28.6843 27.1102 28.9114 28.0188C29.1457 28.9274 29.5041 29.5982 29.9868 30.0312C30.4695 30.4642 31.0871 30.6807 31.8395 30.6807C32.9682 30.6807 33.7951 30.1767 34.3204 29.1687C34.8457 28.1608 35.1083 26.6133 35.1083 24.5264Z" fill="white"/>
</svg>
