<svg xmlns="http://www.w3.org/2000/svg" width="84" height="84" viewBox="0 0 84 84" fill="none">
  <g clip-path="url(#clip0_261_6579)">
    <path d="M42 0C65.1971 0 84 18.8042 84 42C84 65.1971 65.1971 84 42 84C18.8042 84 0 65.1971 0 42C0 18.8042 18.8042 0 42 0Z" fill="#19191C"/>
    <path d="M69.5605 28.2201C69.1996 27.8684 66.7452 25.5065 66.7288 25.4921C66.2248 24.9887 65.0738 24.2754 64.3821 24.2754H19.4099C18.5758 24.32 17.7805 24.7459 17.0612 25.4645C17.0717 25.479 14.8746 27.7476 14.4355 28.2201V30.0333L69.5605 29.5313V28.2201Z" fill="#DB3636"/>
    <path d="M15.1101 42.0006H68.9062V58.9102C68.9062 60.4537 67.6554 61.7032 66.1132 61.7032H17.9031C16.3603 61.7032 15.1101 60.4537 15.1101 58.9102V42.0006Z" fill="#CD2929"/>
    <path d="M68.7769 43.4319C68.7769 44.7555 67.7039 45.9197 66.3829 45.9197H17.5185C16.1962 45.9197 15.1245 44.7555 15.1245 43.4319H68.7769Z" fill="#BD2424"/>
    <path d="M14.4355 28.2201V41.8281C14.4355 43.3709 15.6857 44.6211 17.2285 44.6211H66.7682C68.311 44.6211 69.5612 43.3709 69.5612 41.8281V28.2201H14.4355Z" fill="#E23F3F"/>
    <path d="M45.9375 44.6211H38.0769V61.6396H45.9375V44.6211Z" fill="#B92424"/>
    <path d="M45.9375 24.2754H38.0769V44.6762H45.9375V24.2754Z" fill="#CB3737"/>
    <path d="M38.7332 24.2754H45.2812V61.6396H38.7332V24.2754Z" fill="#F14040"/>
    <path d="M39.3672 24.2754H44.606V61.6803H39.3672V24.2754Z" fill="#BF2525"/>
    <path d="M45.1375 40.0208H38.8559C38.4155 40.0208 38.0579 40.3778 38.0579 40.8188V47.1115C38.0579 47.5525 38.4149 47.9095 38.8559 47.9095H41.3319V48.5743H42.6411V47.9095H45.1381C45.5791 47.9095 45.9361 47.5525 45.9361 47.1115V40.8188C45.9355 40.3784 45.5785 40.0208 45.1375 40.0208ZM44.6158 45.7912C44.6158 46.2322 44.2581 46.5898 43.8171 46.5898H42.6405V43.3237H41.3312V46.5898H40.1756C39.7352 46.5898 39.3776 46.2322 39.3776 45.7912V42.1391C39.3776 41.6981 39.7346 41.3411 40.1756 41.3411H43.8165C44.2575 41.3411 44.6151 41.6981 44.6151 42.1391V45.7912H44.6158Z" fill="#F5F7F7"/>
    <path d="M49.0771 20.3418H34.9237C34.4827 20.3418 34.1257 20.6949 34.1257 21.1293V25.8536C34.1257 26.2881 34.4827 26.2467 34.9237 26.2467H35.3227C35.7631 26.2467 36.1004 26.2874 36.1004 25.8536V22.3105H47.8998V25.8937C47.8998 26.3288 48.2574 26.2474 48.6984 26.2474H49.0968C49.5378 26.2474 49.8751 26.3294 49.8751 25.8937V21.13C49.8751 20.6942 49.5181 20.3418 49.0771 20.3418Z" fill="#A62525"/>
    <path d="M69.5605 28.2201H14.4355V31.4941H69.5605V28.2201Z" fill="url(#paint0_linear_261_6579)"/>
  </g>
  <defs>
    <linearGradient id="paint0_linear_261_6579" x1="41.998" y1="28.2201" x2="41.998" y2="31.4941" gradientUnits="userSpaceOnUse">
      <stop stop-color="white" stop-opacity="0.2"/>
      <stop offset="1" stop-color="#E27C3F" stop-opacity="0"/>
    </linearGradient>
    <clipPath id="clip0_261_6579">
      <rect width="84" height="84" fill="white"/>
    </clipPath>
  </defs>
</svg>